<?xml version="1.0" encoding="utf-8"?>
<!-- Generator: Adobe Illustrator 23.0.1, SVG Export Plug-In . SVG Version: 6.00 Build 0)  -->
<svg version="1.1" xmlns="http://www.w3.org/2000/svg" xmlns:xlink="http://www.w3.org/1999/xlink" x="0px" y="0px"
	 viewBox="0 0 500 500" style="enable-background:new 0 0 500 500;" xml:space="preserve">
<style type="text/css">
	.st0{fill:#FFFFFF;}
	.st1{fill:#FFF5EC;}
	.st2{opacity:0.54;}
	.st3{fill:#FFBE13;}
	.st4{fill:#D2D2D2;}
	.st5{fill:#EDDCCE;}
	.st6{fill:#FFC9AE;}
	.st7{fill:#FFB890;}
	.st8{fill:#363636;}
	.st9{fill:#073D4C;}
	.st10{fill:#074559;}
	.st11{fill:#919191;}
	.st12{fill:#D1D1D1;}
	.st13{fill:#C9C9C9;}
	.st14{opacity:0.21;fill:#C9C9C9;}
	.st15{fill:#0C5870;}
	.st16{fill:#B64401;}
	.st17{opacity:0.31;fill:#B64401;}
	.st18{fill:#F29B62;}
	.st19{opacity:0.68;}
	.st20{fill:#F29D86;}
	.st21{fill:#FF9810;}
	.st22{display:none;}
	.st23{display:inline;}
</style>
<g id="BACKGROUND">
	<rect x="0.52" class="st0" width="500" height="500"/>
</g>
<g id="OBJECTS">
	<g>
		
			<ellipse transform="matrix(0.7071 -0.7071 0.7071 0.7071 -101.6598 247.1187)" class="st1" cx="247.47" cy="246.27" rx="181.5" ry="181.5"/>
		<g>
			<g>
				<path class="st0" d="M366.52,98.56h-47.59c-1.8,0-3.26-1.46-3.26-3.26v-0.65c0-1.8,1.46-3.26,3.26-3.26h47.59
					c1.8,0,3.26,1.46,3.26,3.26v0.65C369.79,97.1,368.33,98.56,366.52,98.56z"/>
				<path class="st0" d="M366.52,112.95h-47.59c-1.8,0-3.26-1.46-3.26-3.26v-0.65c0-1.8,1.46-3.26,3.26-3.26h47.59
					c1.8,0,3.26,1.46,3.26,3.26v0.65C369.79,111.49,368.33,112.95,366.52,112.95z"/>
				<path class="st0" d="M400.32,126.44h-47.59c-1.8,0-3.26-1.46-3.26-3.26v-0.65c0-1.8,1.46-3.26,3.26-3.26h47.59
					c1.8,0,3.26,1.46,3.26,3.26v0.65C403.58,124.98,402.12,126.44,400.32,126.44z"/>
				<path class="st0" d="M400.32,140.84h-47.59c-1.8,0-3.26-1.46-3.26-3.26v-0.65c0-1.8,1.46-3.26,3.26-3.26h47.59
					c1.8,0,3.26,1.46,3.26,3.26v0.65C403.58,139.38,402.12,140.84,400.32,140.84z"/>
			</g>
			<g>
				<path class="st0" d="M119.75,136.78H79.83c-1.51,0-2.73-1.22-2.73-2.73v-0.54c0-1.51,1.22-2.74,2.73-2.74h39.92
					c1.51,0,2.73,1.22,2.73,2.74v0.54C122.48,135.56,121.26,136.78,119.75,136.78z"/>
				<path class="st0" d="M119.75,148.86H79.83c-1.51,0-2.73-1.22-2.73-2.73v-0.55c0-1.51,1.22-2.73,2.73-2.73h39.92
					c1.51,0,2.73,1.22,2.73,2.73v0.55C122.48,147.63,121.26,148.86,119.75,148.86z"/>
				<path class="st0" d="M148.09,160.17h-39.91c-1.51,0-2.74-1.22-2.74-2.73v-0.55c0-1.51,1.22-2.73,2.74-2.73h39.91
					c1.51,0,2.73,1.22,2.73,2.73v0.55C150.83,158.95,149.6,160.17,148.09,160.17z"/>
				<path class="st0" d="M148.09,172.25h-39.91c-1.51,0-2.74-1.22-2.74-2.73v-0.54c0-1.51,1.22-2.73,2.74-2.73h39.91
					c1.51,0,2.73,1.22,2.73,2.73v0.54C150.83,171.02,149.6,172.25,148.09,172.25z"/>
			</g>
			<g>
				<path class="st0" d="M391.82,305.41h-39.92c-1.51,0-2.73-1.22-2.73-2.73v-0.55c0-1.51,1.22-2.73,2.73-2.73h39.92
					c1.51,0,2.73,1.22,2.73,2.73v0.55C394.56,304.18,393.33,305.41,391.82,305.41z"/>
				<path class="st0" d="M391.82,317.48h-39.92c-1.51,0-2.73-1.22-2.73-2.74v-0.54c0-1.51,1.22-2.73,2.73-2.73h39.92
					c1.51,0,2.73,1.22,2.73,2.73v0.54C394.56,316.26,393.33,317.48,391.82,317.48z"/>
				<path class="st0" d="M420.17,328.8h-39.92c-1.51,0-2.73-1.22-2.73-2.73v-0.55c0-1.51,1.22-2.73,2.73-2.73h39.92
					c1.51,0,2.73,1.22,2.73,2.73v0.55C422.9,327.57,421.68,328.8,420.17,328.8z"/>
				<path class="st0" d="M420.17,340.87h-39.92c-1.51,0-2.73-1.22-2.73-2.73v-0.55c0-1.51,1.22-2.73,2.73-2.73h39.92
					c1.51,0,2.73,1.22,2.73,2.73v0.55C422.9,339.65,421.68,340.87,420.17,340.87z"/>
			</g>
		</g>
		<g class="st2">
			<g>
				<g>
					<path class="st3" d="M153.04,128.32c-3.36,0-6.96-1.1-9.61-4.47c-2.93-3.71-4.07-9.35-2.91-14.36c0.87-3.78,2.93-6.62,5.8-8
						l0,0c12.72-6.12,18.78,2.87,20.8,7.02c3.59,7.4-2.9,15.74-5.98,17.67C159.48,127.22,156.38,128.32,153.04,128.32z
						 M147.67,104.32c-1.99,0.96-3.45,3.05-4.1,5.88c-0.94,4.06-0.01,8.76,2.32,11.71c1.72,2.19,4.13,3.29,7.16,3.29
						c0.03,0,0.06,0,0.09,0c2.56-0.02,5.02-0.85,6.33-1.67c1.23-0.77,3.12-2.9,4.34-5.48c1-2.11,1.89-5.25,0.48-8.16
						C161.86,104.87,157,99.83,147.67,104.32L147.67,104.32z"/>
				</g>
				<g>
					<path class="st3" d="M157.79,124.86c0,0,1.38,5.17,2.88,5.76c1.66,0.65,7.05-3.39,6.33-4.83c-0.72-1.44-4.17-4.88-4.17-4.88
						L157.79,124.86z"/>
				</g>
				<g>
					<path class="st3" d="M160.41,124.95c-0.52,0-1.03-0.26-1.32-0.73l-6.29-9.88c-0.46-0.73-0.25-1.7,0.48-2.16
						c0.73-0.47,1.7-0.25,2.16,0.48l6.29,9.88c0.46,0.73,0.25,1.7-0.48,2.16C160.99,124.87,160.7,124.95,160.41,124.95z"/>
				</g>
				<g>
					<path class="st3" d="M156.83,110.29c1.69,1.69,1.69,4.44,0,6.13c-1.69,1.69-4.44,1.69-6.13,0c-1.69-1.69-1.69-4.44,0-6.13
						C152.4,108.6,155.14,108.6,156.83,110.29z"/>
				</g>
			</g>
			<g>
				<path class="st3" d="M295.66,155.75c-0.89,0-1.78-0.12-2.66-0.35c-4.1-1.08-7.48-4.65-8.63-9.09c-1.02-3.96-0.15-8.41,2.34-11.9
					c2.45-3.44,6.17-5.53,10.49-5.88c4.73-0.38,8.2,3.07,9.18,6.7c1.01,3.74-0.53,7.19-3.92,8.8c-0.64,0.31-1.26,0.44-1.84,0.4
					c-0.24,1.59-0.94,3.05-2.54,3.75c-1.98,0.87-3.86,0.64-5.17-0.62c-1.96-1.89-1.98-5.43-0.98-7.95c1.04-2.64,3.13-4.23,5.59-4.27
					c0.01,0,0.02,0,0.03,0c0.95,0,1.73,0.76,1.74,1.72c0,0.13-0.01,0.26-0.04,0.38c0.3,0.18,0.56,0.45,0.71,0.8
					c0.21,0.47,0.39,0.94,0.56,1.37c0.16,0.4,0.36,0.91,0.52,1.23c2.63-1.31,2.16-3.92,1.95-4.7c-0.6-2.23-2.69-4.37-5.52-4.13
					c-4.2,0.35-6.63,2.6-7.93,4.43c-1.86,2.62-2.55,6.07-1.8,9c0.83,3.24,3.24,5.82,6.14,6.59c2.79,0.74,5.62-0.28,8.19-2.94
					c0.67-0.69,1.78-0.71,2.47-0.04c0.69,0.67,0.71,1.77,0.04,2.47C301.9,154.29,298.8,155.75,295.66,155.75z M296.63,139.06
					c-0.78,0.41-1.23,1.26-1.45,1.83c-0.66,1.66-0.46,3.56,0.16,4.16c0.25,0.24,0.7,0.22,1.35-0.07c0.8-0.35,0.68-3.34,0.02-5.54
					C296.67,139.31,296.64,139.19,296.63,139.06z"/>
			</g>
			<g>
				<g>
					<path class="st3" d="M376.04,209.52c-0.22-0.05-0.45-0.11-0.68-0.19c-3.79-1.22-7.02-5.61-5.86-11.63
						c0.92-4.74,3.45-8.52,6.77-10.1c2.28-1.08,4.75-1.03,6.97,0.15c0.83,0.44,1.15,1.48,0.7,2.31c-0.45,0.83-1.48,1.15-2.31,0.7
						c-1.27-0.68-2.58-0.71-3.88-0.08c-2.31,1.1-4.19,4.04-4.89,7.66c-0.79,4.07,1.19,6.97,3.55,7.73c2.01,0.65,3.84-0.32,4.89-2.59
						c0.4-0.86,1.41-1.23,2.27-0.83c0.86,0.4,1.23,1.41,0.83,2.27C383.02,207.92,379.94,210.41,376.04,209.52z"/>
				</g>
				<g>
					<path class="st3" d="M393.08,186.63c-0.31,0.08-0.63,0.17-0.94,0.26c-0.13,0.03-0.25,0.07-0.38,0.1
						c-0.14-0.44-0.29-0.88-0.43-1.33c-0.44-1.3-2.47-0.67-2.04,0.64c0.14,0.42,0.26,0.84,0.38,1.26c-0.57,0.16-1.14,0.32-1.71,0.47
						c-1.51,0.42-1.13,3,0.49,2.77c0.62-0.09,1.25-0.18,1.87-0.27c0.12,0.39,0.25,0.79,0.41,1.18c0.28,0.71,1.23,0.85,1.72,0.44
						c0.13-0.06,0.25-0.15,0.32-0.29c0.26-0.58,0.21-1.14,0.05-1.69c0.3-0.04,0.6-0.08,0.87-0.13
						C396.19,189.7,395.55,185.98,393.08,186.63z"/>
				</g>
				<g>
					<path class="st3" d="M403.38,184.67c-0.31,0.08-0.63,0.17-0.94,0.26c-0.13,0.03-0.25,0.07-0.38,0.1
						c-0.14-0.44-0.29-0.88-0.43-1.33c-0.44-1.3-2.47-0.67-2.04,0.64c0.14,0.42,0.26,0.84,0.38,1.26c-0.57,0.16-1.14,0.32-1.71,0.47
						c-1.51,0.42-1.13,3,0.49,2.77c0.62-0.09,1.25-0.18,1.87-0.27c0.12,0.39,0.25,0.79,0.41,1.18c0.28,0.71,1.23,0.85,1.72,0.44
						c0.13-0.06,0.25-0.15,0.32-0.29c0.26-0.58,0.21-1.13,0.05-1.69c0.3-0.04,0.6-0.08,0.87-0.13
						C406.49,187.74,405.85,184.02,403.38,184.67z"/>
				</g>
			</g>
			<g>
				<g>
					<path class="st3" d="M336.11,347.44c-0.24,0-0.48-0.06-0.7-0.17c-0.75-0.39-1.04-1.31-0.66-2.06l10.01-19.36
						c0.39-0.75,1.31-1.04,2.06-0.66c0.75,0.39,1.04,1.31,0.66,2.06l-10.01,19.36C337.19,347.13,336.66,347.44,336.11,347.44z"/>
				</g>
				<g>
					<path class="st3" d="M330.77,343.43c-0.55,0-1.08-0.3-1.36-0.82l-5.67-10.85c-0.38-0.72-0.12-1.61,0.57-2.02l10.68-6.34
						c0.72-0.43,1.66-0.19,2.09,0.53c0.43,0.73,0.19,1.66-0.53,2.09l-9.44,5.6l5,9.56c0.39,0.75,0.1,1.67-0.65,2.06
						C331.25,343.37,331.01,343.43,330.77,343.43z"/>
				</g>
				<g>
					<path class="st3" d="M344.62,348.77c-0.6,0-1.17-0.35-1.41-0.94c-0.33-0.78,0.04-1.67,0.82-2l11.02-4.62l-4.02-11.32
						c-0.28-0.8,0.13-1.67,0.93-1.95c0.8-0.28,1.67,0.13,1.95,0.93l4.51,12.68c0.27,0.76-0.1,1.61-0.85,1.92l-12.35,5.17
						C345.02,348.73,344.82,348.77,344.62,348.77z"/>
				</g>
			</g>
			<g>
				<path class="st3" d="M105.95,293.57c-0.98-1.75-2.18-3.38-3.58-4.83c-1.08,0.97-2.17,1.94-3.25,2.91
					c-1.59-0.99-3.68-1.67-5.94-1.61c-0.06-1.43-0.25-2.86-0.58-4.26c-2.51-0.04-5.01,0.88-6.91,2.51c0.44,1.07,1.05,2.06,1.8,2.94
					c0.12,0.14,0.24,0.27,0.36,0.41c-0.08,0.05-0.17,0.1-0.25,0.15c-3.04,1.97-4.54,4.08-5.16,6.13c-0.92-0.16-1.84-0.33-2.77-0.47
					c-0.22-0.03-0.44-0.07-0.65,0.01c-0.2,0.08-0.35,0.26-0.45,0.45c-0.34,0.67-0.19,1.47-0.03,2.2c0.23,1.03,0.45,2.06,0.68,3.09
					c0.12,0.55,0.32,1.19,0.86,1.34c0.39,0.12,0.8-0.09,1.17-0.28c0.44-0.23,0.9-0.44,1.36-0.65c0.21,0.68,0.46,1.32,0.71,1.9
					c0.67,1.54,2,3.43,3.9,4.75c-0.78,0.65-1.55,1.29-2.33,1.94c0.55,0.29,1.11,0.58,1.66,0.86c1.84,0.95,3.77,1.93,5.84,1.9
					c0.36-1.02,0.64-2.06,0.82-3.13c1.06-0.11,2.19-0.41,3.39-0.96c1.66-0.75,2.9-1.89,3.82-3.22c0.71,0.43,1.37,0.94,1.96,1.52
					c0.07,0.07,0.17,0.15,0.27,0.13c0.09-0.02,0.14-0.1,0.19-0.18c0.44-0.74,0.89-1.48,1.33-2.22c0.74-1.22,1.14-2.23,1.49-3.61
					c-1.1-0.29-2.12-0.66-3.22-1.03c0.36-2.31,0.22-4.59-0.17-6.27c1.28-0.52,2.49-1.2,3.61-2.01c0.05-0.04,0.11-0.08,0.13-0.14
					C106.05,293.76,106,293.65,105.95,293.57z M94.22,305.3c-3.1,1.41-5.17-0.84-5.83-2.35c-0.66-1.51-1.31-3.95,1.88-6.01
					c2.61-1.69,5.54-0.28,6.2,1.13C97.13,299.47,97.32,303.89,94.22,305.3z"/>
				<path class="st3" d="M124.42,301.41c-0.5-0.9-1.12-1.74-1.84-2.48c-0.56,0.5-1.12,1-1.67,1.5c-0.82-0.51-1.89-0.86-3.06-0.83
					c-0.03-0.74-0.13-1.47-0.3-2.19c-1.29-0.02-2.58,0.45-3.56,1.29c0.23,0.55,0.54,1.06,0.93,1.51c0.06,0.07,0.12,0.14,0.18,0.21
					c-0.04,0.03-0.08,0.05-0.13,0.08c-1.56,1.01-2.34,2.1-2.65,3.15c-0.47-0.08-0.95-0.17-1.42-0.24c-0.11-0.02-0.23-0.03-0.33,0.01
					c-0.1,0.04-0.18,0.13-0.23,0.23c-0.18,0.34-0.1,0.75-0.02,1.13c0.12,0.53,0.23,1.06,0.35,1.59c0.06,0.28,0.17,0.61,0.44,0.69
					c0.2,0.06,0.41-0.05,0.6-0.14c0.23-0.12,0.46-0.23,0.7-0.34c0.11,0.35,0.24,0.68,0.37,0.98c0.35,0.79,1.03,1.76,2,2.44
					c-0.4,0.33-0.8,0.66-1.2,1c0.29,0.15,0.57,0.3,0.86,0.44c0.94,0.49,1.94,0.99,3,0.98c0.19-0.52,0.33-1.06,0.42-1.61
					c0.55-0.06,1.13-0.21,1.74-0.49c0.85-0.39,1.49-0.97,1.96-1.65c0.36,0.22,0.71,0.48,1.01,0.78c0.04,0.04,0.09,0.08,0.14,0.07
					c0.05-0.01,0.07-0.05,0.1-0.09c0.23-0.38,0.46-0.76,0.69-1.14c0.38-0.63,0.59-1.14,0.77-1.86c-0.57-0.15-1.09-0.34-1.66-0.53
					c0.19-1.19,0.11-2.36-0.09-3.22c0.66-0.27,1.28-0.62,1.86-1.04c0.03-0.02,0.06-0.04,0.07-0.07
					C124.47,301.51,124.45,301.45,124.42,301.41z M118.39,307.44c-1.59,0.73-2.66-0.43-3-1.21c-0.34-0.77-0.68-2.03,0.97-3.09
					c1.34-0.87,2.85-0.15,3.19,0.58C119.88,304.45,119.98,306.72,118.39,307.44z"/>
			</g>
			<g>
				<path class="st3" d="M410.28,250.21c-0.98-1.75-2.18-3.38-3.58-4.83c-1.08,0.97-2.17,1.94-3.25,2.91
					c-1.59-0.99-3.68-1.67-5.94-1.61c-0.06-1.43-0.25-2.86-0.58-4.26c-2.51-0.04-5.01,0.88-6.91,2.51c0.44,1.07,1.05,2.06,1.8,2.94
					c0.12,0.14,0.24,0.27,0.36,0.41c-0.08,0.05-0.17,0.1-0.25,0.15c-3.04,1.97-4.54,4.08-5.16,6.13c-0.92-0.16-1.84-0.33-2.77-0.47
					c-0.22-0.03-0.44-0.07-0.65,0.01c-0.2,0.08-0.35,0.26-0.45,0.45c-0.34,0.67-0.19,1.47-0.03,2.2c0.23,1.03,0.45,2.06,0.68,3.09
					c0.12,0.55,0.32,1.19,0.86,1.34c0.39,0.11,0.8-0.09,1.17-0.28c0.44-0.23,0.9-0.44,1.36-0.65c0.21,0.68,0.46,1.32,0.71,1.9
					c0.67,1.54,2,3.43,3.9,4.75c-0.78,0.65-1.55,1.29-2.33,1.94c0.55,0.29,1.11,0.58,1.66,0.86c1.84,0.95,3.77,1.93,5.84,1.9
					c0.36-1.02,0.64-2.06,0.82-3.13c1.06-0.11,2.19-0.41,3.39-0.96c1.66-0.75,2.9-1.89,3.82-3.22c0.71,0.43,1.37,0.94,1.96,1.52
					c0.07,0.07,0.17,0.15,0.27,0.13c0.09-0.02,0.14-0.1,0.19-0.18c0.44-0.74,0.89-1.48,1.33-2.22c0.73-1.22,1.14-2.23,1.49-3.61
					c-1.1-0.29-2.12-0.66-3.22-1.03c0.36-2.31,0.22-4.59-0.17-6.27c1.28-0.52,2.49-1.2,3.61-2.01c0.05-0.04,0.11-0.08,0.13-0.14
					C410.38,250.4,410.33,250.3,410.28,250.21z M398.55,261.94c-3.1,1.41-5.17-0.84-5.83-2.35c-0.66-1.51-1.31-3.95,1.88-6.01
					c2.61-1.69,5.54-0.28,6.2,1.13C401.46,256.12,401.65,260.53,398.55,261.94z"/>
				<path class="st3" d="M428.75,258.05c-0.5-0.9-1.12-1.74-1.84-2.48c-0.56,0.5-1.12,1-1.67,1.5c-0.82-0.51-1.89-0.86-3.06-0.83
					c-0.03-0.74-0.13-1.47-0.3-2.19c-1.29-0.02-2.58,0.45-3.56,1.29c0.23,0.55,0.54,1.06,0.93,1.51c0.06,0.07,0.12,0.14,0.18,0.21
					c-0.04,0.03-0.08,0.05-0.13,0.08c-1.56,1.01-2.34,2.1-2.65,3.15c-0.47-0.08-0.95-0.17-1.42-0.24c-0.11-0.02-0.23-0.03-0.33,0.01
					c-0.1,0.04-0.18,0.13-0.23,0.23c-0.18,0.34-0.1,0.75-0.02,1.13c0.12,0.53,0.23,1.06,0.35,1.59c0.06,0.28,0.17,0.61,0.44,0.69
					c0.2,0.06,0.41-0.05,0.6-0.14c0.23-0.12,0.46-0.23,0.7-0.34c0.11,0.35,0.24,0.68,0.37,0.98c0.35,0.79,1.03,1.76,2,2.44
					c-0.4,0.33-0.8,0.66-1.2,1c0.29,0.15,0.57,0.3,0.86,0.44c0.94,0.49,1.94,0.99,3,0.98c0.19-0.52,0.33-1.06,0.42-1.61
					c0.55-0.06,1.13-0.21,1.74-0.49c0.85-0.39,1.49-0.97,1.96-1.65c0.36,0.22,0.71,0.48,1.01,0.78c0.04,0.04,0.09,0.08,0.14,0.07
					c0.05-0.01,0.07-0.05,0.1-0.09c0.23-0.38,0.46-0.76,0.69-1.14c0.38-0.63,0.59-1.14,0.77-1.86c-0.57-0.15-1.09-0.34-1.66-0.53
					c0.19-1.19,0.11-2.36-0.09-3.22c0.66-0.27,1.28-0.62,1.86-1.04c0.03-0.02,0.06-0.04,0.07-0.07
					C428.8,258.15,428.78,258.1,428.75,258.05z M422.71,264.09c-1.59,0.73-2.66-0.43-3-1.21c-0.34-0.77-0.68-2.03,0.97-3.09
					c1.34-0.87,2.85-0.15,3.19,0.58C424.21,261.09,424.31,263.36,422.71,264.09z"/>
			</g>
			<g>
				<g>
					<g>
						<path class="st3" d="M78.35,239.09c-0.18,0-0.37-0.01-0.56-0.02c-3.15-0.28-6.41-3.1-6.58-7.95c-0.13-3.82,1.16-7.19,3.45-9
							c1.57-1.24,3.49-1.63,5.41-1.11c0.72,0.2,1.15,0.94,0.95,1.66c-0.2,0.72-0.94,1.15-1.66,0.95c-1.1-0.3-2.12-0.09-3.02,0.62
							c-1.59,1.26-2.52,3.86-2.42,6.78c0.11,3.28,2.15,5.17,4.11,5.34c1.67,0.15,2.91-0.93,3.32-2.87c0.15-0.73,0.87-1.2,1.61-1.04
							c0.73,0.15,1.2,0.87,1.04,1.61C83.46,236.62,81.52,239.09,78.35,239.09z"/>
					</g>
					<g>
						<path class="st3" d="M87.82,221.5c-1.43-0.25-2.65,0.91-2.41,2.36c0.22,1.32,1.91,1.93,3.03,1.34c0.19-0.1,0.36-0.25,0.5-0.42
							c0.26-0.18,0.46-0.44,0.56-0.77C89.87,222.89,88.92,221.69,87.82,221.5z"/>
					</g>
					<g>
						<g>
							<polygon class="st3" points="89.29,230.2 89.29,230.2 89.29,230.2 							"/>
						</g>
						<g>
							<path class="st3" d="M91.25,230.25c-0.07-0.22-0.18-0.4-0.33-0.55c-0.26-0.59-0.83-1-1.47-1.09
								c-0.72-0.1-1.46,0.21-1.84,0.85c-0.34,0.58-0.38,1.28-0.12,1.9c0.36,0.85,1.23,1.3,2.14,1.18
								C90.6,232.41,91.59,231.26,91.25,230.25z"/>
						</g>
					</g>
				</g>
				<g>
					<path class="st3" d="M96.72,234.54c-0.69,0-1.28-0.53-1.35-1.23l-1.73-18.73c-0.07-0.74,0.48-1.4,1.22-1.47
						c0.75-0.07,1.4,0.48,1.47,1.22l1.73,18.73c0.07,0.75-0.48,1.4-1.22,1.47C96.81,234.54,96.77,234.54,96.72,234.54z"/>
				</g>
			</g>
		</g>
		<g>
			<g>
				<g>
					<path class="st4" d="M91.84,337.03c-1.38,0-2.53-1.12-2.53-2.5c0-1.38,1.09-2.5,2.48-2.5h0.05c1.38,0,2.5,1.12,2.5,2.5
						C94.34,335.91,93.22,337.03,91.84,337.03z"/>
				</g>
				<g>
					<path class="st4" d="M150.82,337.03c-1.38,0-2.55-1.12-2.55-2.5c0-1.38,1.07-2.5,2.45-2.5h0.1c1.38,0,2.5,1.12,2.5,2.5
						C153.32,335.91,152.2,337.03,150.82,337.03z M140.99,337.03c-1.38,0-2.55-1.12-2.55-2.5c0-1.38,1.07-2.5,2.45-2.5h0.1
						c1.38,0,2.5,1.12,2.5,2.5C143.49,335.91,142.37,337.03,140.99,337.03z M131.16,337.03c-1.38,0-2.55-1.12-2.55-2.5
						c0-1.38,1.07-2.5,2.45-2.5h0.1c1.38,0,2.5,1.12,2.5,2.5C133.66,335.91,132.54,337.03,131.16,337.03z M121.33,337.03
						c-1.38,0-2.55-1.12-2.55-2.5c0-1.38,1.07-2.5,2.45-2.5h0.1c1.38,0,2.5,1.12,2.5,2.5C123.83,335.91,122.71,337.03,121.33,337.03
						z M111.5,337.03c-1.38,0-2.55-1.12-2.55-2.5c0-1.38,1.07-2.5,2.45-2.5h0.1c1.38,0,2.5,1.12,2.5,2.5
						C114,335.91,112.88,337.03,111.5,337.03z M101.67,337.03c-1.38,0-2.55-1.12-2.55-2.5c0-1.38,1.07-2.5,2.45-2.5h0.1
						c1.38,0,2.5,1.12,2.5,2.5C104.17,335.91,103.05,337.03,101.67,337.03z"/>
				</g>
				<g>
					<path class="st4" d="M160.61,337.03c-1.38,0-2.52-1.12-2.52-2.5c0-1.38,1.09-2.5,2.48-2.5h0.05c1.38,0,2.5,1.12,2.5,2.5
						C163.11,335.91,161.99,337.03,160.61,337.03z"/>
				</g>
			</g>
			<g>
				<g>
					<path class="st4" d="M380.35,168.72c-1.38,0-2.53-1.12-2.53-2.5c0-1.38,1.09-2.5,2.47-2.5h0.05c1.38,0,2.5,1.12,2.5,2.5
						C382.85,167.6,381.73,168.72,380.35,168.72z"/>
				</g>
				<g>
					<path class="st4" d="M439.33,168.72c-1.38,0-2.55-1.12-2.55-2.5c0-1.38,1.07-2.5,2.45-2.5h0.1c1.38,0,2.5,1.12,2.5,2.5
						C441.83,167.6,440.71,168.72,439.33,168.72z M429.5,168.72c-1.38,0-2.55-1.12-2.55-2.5c0-1.38,1.07-2.5,2.45-2.5h0.1
						c1.38,0,2.5,1.12,2.5,2.5C432,167.6,430.88,168.72,429.5,168.72z M419.67,168.72c-1.38,0-2.55-1.12-2.55-2.5
						c0-1.38,1.07-2.5,2.45-2.5h0.1c1.38,0,2.5,1.12,2.5,2.5C422.17,167.6,421.05,168.72,419.67,168.72z M409.84,168.72
						c-1.38,0-2.55-1.12-2.55-2.5c0-1.38,1.07-2.5,2.45-2.5h0.1c1.38,0,2.5,1.12,2.5,2.5C412.34,167.6,411.22,168.72,409.84,168.72z
						 M400.01,168.72c-1.38,0-2.55-1.12-2.55-2.5c0-1.38,1.07-2.5,2.45-2.5h0.1c1.38,0,2.5,1.12,2.5,2.5
						C402.51,167.6,401.39,168.72,400.01,168.72z M390.18,168.72c-1.38,0-2.55-1.12-2.55-2.5c0-1.38,1.07-2.5,2.45-2.5h0.1
						c1.38,0,2.5,1.12,2.5,2.5C392.68,167.6,391.56,168.72,390.18,168.72z"/>
				</g>
				<g>
					<path class="st4" d="M449.12,168.72c-1.38,0-2.53-1.12-2.53-2.5c0-1.38,1.09-2.5,2.48-2.5h0.05c1.38,0,2.5,1.12,2.5,2.5
						C451.62,167.6,450.5,168.72,449.12,168.72z"/>
				</g>
			</g>
			<g>
				<g>
					<path class="st4" d="M50.91,185.73c-1.38,0-2.52-1.12-2.52-2.5c0-1.38,1.09-2.5,2.48-2.5h0.05c1.38,0,2.5,1.12,2.5,2.5
						C53.41,184.61,52.29,185.73,50.91,185.73z"/>
				</g>
				<g>
					<path class="st4" d="M109.89,185.73c-1.38,0-2.55-1.12-2.55-2.5c0-1.38,1.07-2.5,2.45-2.5h0.1c1.38,0,2.5,1.12,2.5,2.5
						C112.39,184.61,111.27,185.73,109.89,185.73z M100.06,185.73c-1.38,0-2.55-1.12-2.55-2.5c0-1.38,1.07-2.5,2.45-2.5h0.1
						c1.38,0,2.5,1.12,2.5,2.5C102.56,184.61,101.44,185.73,100.06,185.73z M90.23,185.73c-1.38,0-2.55-1.12-2.55-2.5
						c0-1.38,1.07-2.5,2.45-2.5h0.1c1.38,0,2.5,1.12,2.5,2.5C92.73,184.61,91.61,185.73,90.23,185.73z M80.4,185.73
						c-1.38,0-2.55-1.12-2.55-2.5c0-1.38,1.07-2.5,2.45-2.5h0.1c1.38,0,2.5,1.12,2.5,2.5C82.9,184.61,81.78,185.73,80.4,185.73z
						 M70.57,185.73c-1.38,0-2.55-1.12-2.55-2.5c0-1.38,1.07-2.5,2.45-2.5h0.1c1.38,0,2.5,1.12,2.5,2.5
						C73.07,184.61,71.95,185.73,70.57,185.73z M60.74,185.73c-1.38,0-2.55-1.12-2.55-2.5c0-1.38,1.07-2.5,2.45-2.5h0.1
						c1.38,0,2.5,1.12,2.5,2.5C63.24,184.61,62.12,185.73,60.74,185.73z"/>
				</g>
				<g>
					<path class="st4" d="M119.67,185.73c-1.38,0-2.52-1.12-2.52-2.5c0-1.38,1.09-2.5,2.48-2.5h0.05c1.38,0,2.5,1.12,2.5,2.5
						C122.17,184.61,121.05,185.73,119.67,185.73z"/>
				</g>
			</g>
		</g>
		<g>
			<g>
				<path class="st5" d="M441.26,211.51c-3.05,0-5.54-2.48-5.54-5.54c0-3.05,2.48-5.54,5.54-5.54c3.05,0,5.54,2.48,5.54,5.54
					C446.79,209.03,444.31,211.51,441.26,211.51z M441.26,203.1c-1.59,0-2.88,1.29-2.88,2.88c0,1.59,1.29,2.88,2.88,2.88
					c1.59,0,2.88-1.29,2.88-2.88C444.13,204.39,442.84,203.1,441.26,203.1z"/>
			</g>
			<g>
				<path class="st5" d="M317.58,78.99c-3.05,0-5.54-2.48-5.54-5.54s2.48-5.54,5.54-5.54c3.05,0,5.54,2.48,5.54,5.54
					S320.63,78.99,317.58,78.99z M317.58,70.58c-1.59,0-2.88,1.29-2.88,2.88c0,1.59,1.29,2.88,2.88,2.88c1.59,0,2.88-1.29,2.88-2.88
					C320.45,71.87,319.16,70.58,317.58,70.58z"/>
			</g>
			<g>
				<path class="st5" d="M239.86,96.98c-3.05,0-5.54-2.48-5.54-5.54c0-3.05,2.48-5.54,5.54-5.54c3.05,0,5.54,2.48,5.54,5.54
					C245.4,94.49,242.92,96.98,239.86,96.98z M239.86,88.56c-1.59,0-2.88,1.29-2.88,2.88c0,1.59,1.29,2.88,2.88,2.88
					c1.59,0,2.88-1.29,2.88-2.88C242.74,89.85,241.45,88.56,239.86,88.56z"/>
			</g>
			<g>
				<path class="st5" d="M126.7,113.88c-3.05,0-5.54-2.48-5.54-5.54c0-3.05,2.48-5.54,5.54-5.54c3.05,0,5.54,2.48,5.54,5.54
					C132.24,111.4,129.75,113.88,126.7,113.88z M126.7,105.47c-1.59,0-2.88,1.29-2.88,2.88c0,1.59,1.29,2.88,2.88,2.88
					c1.59,0,2.88-1.29,2.88-2.88C129.58,106.76,128.29,105.47,126.7,105.47z"/>
			</g>
			<g>
				<path class="st5" d="M68.6,313.33c-3.05,0-5.54-2.48-5.54-5.54c0-3.05,2.48-5.54,5.54-5.54c3.05,0,5.54,2.48,5.54,5.54
					C74.14,310.85,71.65,313.33,68.6,313.33z M68.6,304.92c-1.59,0-2.88,1.29-2.88,2.88c0,1.59,1.29,2.88,2.88,2.88
					c1.59,0,2.88-1.29,2.88-2.88C71.48,306.21,70.19,304.92,68.6,304.92z"/>
			</g>
			<g>
				<path class="st5" d="M142.45,371.53c-3.05,0-5.54-2.48-5.54-5.54c0-3.05,2.48-5.54,5.54-5.54c3.05,0,5.54,2.48,5.54,5.54
					C147.99,369.05,145.51,371.53,142.45,371.53z M142.45,363.12c-1.59,0-2.88,1.29-2.88,2.88c0,1.59,1.29,2.88,2.88,2.88
					c1.59,0,2.88-1.29,2.88-2.88C145.33,364.41,144.04,363.12,142.45,363.12z"/>
			</g>
			<g>
				<path class="st5" d="M428.22,293.58c-3.05,0-5.54-2.48-5.54-5.54c0-3.05,2.48-5.54,5.54-5.54c3.05,0,5.54,2.48,5.54,5.54
					C433.75,291.09,431.27,293.58,428.22,293.58z M428.22,285.16c-1.59,0-2.88,1.29-2.88,2.88c0,1.59,1.29,2.88,2.88,2.88
					c1.59,0,2.88-1.29,2.88-2.88C431.09,286.45,429.8,285.16,428.22,285.16z"/>
			</g>
			<g>
				<path class="st5" d="M188.01,247.44c-3.05,0-5.54-2.48-5.54-5.54c0-3.05,2.48-5.54,5.54-5.54c3.05,0,5.54,2.48,5.54,5.54
					C193.55,244.96,191.06,247.44,188.01,247.44z M188.01,239.03c-1.59,0-2.88,1.29-2.88,2.88c0,1.59,1.29,2.88,2.88,2.88
					c1.59,0,2.88-1.29,2.88-2.88C190.89,240.32,189.59,239.03,188.01,239.03z"/>
			</g>
			<g>
				<path class="st5" d="M118.28,205.13c-3.05,0-5.54-2.48-5.54-5.54c0-3.05,2.48-5.54,5.54-5.54c3.05,0,5.54,2.48,5.54,5.54
					C123.82,202.64,121.33,205.13,118.28,205.13z M118.28,196.71c-1.59,0-2.88,1.29-2.88,2.88c0,1.59,1.29,2.88,2.88,2.88
					c1.59,0,2.88-1.29,2.88-2.88C121.16,198,119.87,196.71,118.28,196.71z"/>
			</g>
			<path class="st5" d="M184.73,82.64h-2.01v-2.01c0-0.73-0.6-1.33-1.33-1.33c-0.73,0-1.33,0.6-1.33,1.33v2.01h-2.01
				c-0.73,0-1.33,0.6-1.33,1.33c0,0.73,0.6,1.33,1.33,1.33h2.01v2.01c0,0.73,0.6,1.33,1.33,1.33c0.73,0,1.33-0.6,1.33-1.33V85.3
				h2.01c0.73,0,1.33-0.6,1.33-1.33C186.06,83.23,185.46,82.64,184.73,82.64z"/>
			<path class="st5" d="M61.22,239.85h-2.01v-2.01c0-0.73-0.6-1.33-1.33-1.33c-0.73,0-1.33,0.6-1.33,1.33v2.01h-2.01
				c-0.73,0-1.33,0.6-1.33,1.33c0,0.73,0.6,1.33,1.33,1.33h2.01v2.01c0,0.73,0.6,1.33,1.33,1.33c0.73,0,1.33-0.6,1.33-1.33v-2.01
				h2.01c0.73,0,1.33-0.6,1.33-1.33C62.55,240.45,61.95,239.85,61.22,239.85z"/>
			<path class="st5" d="M378.66,364.94h-2.01v-2.01c0-0.73-0.6-1.33-1.33-1.33c-0.73,0-1.33,0.6-1.33,1.33v2.01h-2.01
				c-0.73,0-1.33,0.6-1.33,1.33c0,0.73,0.6,1.33,1.33,1.33h2.01v2.01c0,0.73,0.6,1.33,1.33,1.33c0.73,0,1.33-0.6,1.33-1.33v-2.01
				h2.01c0.73,0,1.33-0.6,1.33-1.33C379.99,365.53,379.39,364.94,378.66,364.94z"/>
			<path class="st5" d="M324.2,249.29h-2.01v-2.01c0-0.73-0.6-1.33-1.33-1.33s-1.33,0.6-1.33,1.33v2.01h-2.01
				c-0.73,0-1.33,0.6-1.33,1.33c0,0.73,0.6,1.33,1.33,1.33h2.01v2.01c0,0.73,0.6,1.33,1.33,1.33s1.33-0.6,1.33-1.33v-2.01h2.01
				c0.73,0,1.33-0.6,1.33-1.33C325.53,249.88,324.94,249.29,324.2,249.29z"/>
			<path class="st5" d="M123.66,255.2h-2.01v-2.01c0-0.73-0.6-1.33-1.33-1.33c-0.73,0-1.33,0.6-1.33,1.33v2.01h-2.01
				c-0.73,0-1.33,0.6-1.33,1.33c0,0.73,0.6,1.33,1.33,1.33h2.01v2.01c0,0.73,0.6,1.33,1.33,1.33c0.73,0,1.33-0.6,1.33-1.33v-2.01
				h2.01c0.73,0,1.33-0.6,1.33-1.33C124.99,255.79,124.39,255.2,123.66,255.2z"/>
			<path class="st5" d="M73.91,143.06H71.9v-2.01c0-0.73-0.6-1.33-1.33-1.33c-0.73,0-1.33,0.6-1.33,1.33v2.01h-2.01
				c-0.73,0-1.33,0.6-1.33,1.33c0,0.73,0.6,1.33,1.33,1.33h2.01v2.01c0,0.73,0.6,1.33,1.33,1.33c0.73,0,1.33-0.6,1.33-1.33v-2.01
				h2.01c0.73,0,1.33-0.6,1.33-1.33C75.24,143.65,74.64,143.06,73.91,143.06z"/>
			<path class="st5" d="M287.07,106.85h-2.01v-2.01c0-0.73-0.6-1.33-1.33-1.33s-1.33,0.6-1.33,1.33v2.01h-2.01
				c-0.73,0-1.33,0.6-1.33,1.33s0.6,1.33,1.33,1.33h2.01v2.01c0,0.73,0.6,1.33,1.33,1.33s1.33-0.6,1.33-1.33v-2.01h2.01
				c0.73,0,1.33-0.6,1.33-1.33S287.81,106.85,287.07,106.85z"/>
			<path class="st5" d="M349.03,156.25h-2.01v-2.01c0-0.73-0.6-1.33-1.33-1.33c-0.73,0-1.33,0.6-1.33,1.33v2.01h-2.01
				c-0.73,0-1.33,0.6-1.33,1.33c0,0.73,0.6,1.33,1.33,1.33h2.01v2.01c0,0.73,0.6,1.33,1.33,1.33c0.73,0,1.33-0.6,1.33-1.33v-2.01
				h2.01c0.73,0,1.33-0.6,1.33-1.33C350.36,156.85,349.77,156.25,349.03,156.25z"/>
			<path class="st5" d="M432.86,109.63h-2.01v-2.01c0-0.73-0.6-1.33-1.33-1.33c-0.73,0-1.33,0.6-1.33,1.33v2.01h-2.01
				c-0.73,0-1.33,0.6-1.33,1.33s0.6,1.33,1.33,1.33h2.01v2.01c0,0.73,0.6,1.33,1.33,1.33c0.73,0,1.33-0.6,1.33-1.33v-2.01h2.01
				c0.73,0,1.33-0.6,1.33-1.33S433.6,109.63,432.86,109.63z"/>
		</g>
		<g>
			<path class="st6" d="M217.78,268.78c-44.06,37.04-68.98-13.23-59.06-39.2c0,0,12.85,7.37,13.45-1.31
				c0.59-8.68-8.09-2.53-11.79-5.81c-3.71-3.28-2.31-7.76,1.1-8.88c3.41-1.12,4.95,0,5.65,4.29c0.63,3.86,6.66,4.34,8,1.07
				c1.33-3.26,0.49-13.95-15.08-14.4c-0.44-2.22,4.51-20.72-3.96-20.61c-6.76,0.09-4.11,14.89-3.96,19.04
				c-2.37-6.97-2.68-18.64-9.8-15.08c-7.12,3.56,4.07,19.26,4.07,19.26s-7.63-12.93-12.22-6.93c-3.3,4.32,0.88,8.26,6.85,12.59
				c4.62,3.35,1.88,13.12,1.19,16.76c-2.22,11.67-8.97,57.64,26.84,72.32c18.68,7.66,38.08,1.33,38.08,1.33L217.78,268.78z"/>
			<path class="st7" d="M217.78,268.78l-10.66,34.46c0,0-19.39,6.32-38.07-1.34c-29.56-12.11-30.13-45.53-28.17-63.4
				c-0.29,18.35,4.23,43.18,28.82,53.25c18.68,7.66,38.08,1.34,38.08,1.34l6.7-21.67C215.56,270.6,216.67,269.72,217.78,268.78z"/>
			<path class="st6" d="M282.22,268.78c44.06,37.04,68.98-13.23,59.06-39.2c0,0-12.85,7.37-13.45-1.31
				c-0.59-8.68,8.09-2.53,11.79-5.81c3.71-3.28,2.31-7.76-1.1-8.88c-3.41-1.12-4.95,0-5.65,4.29c-0.63,3.86-6.66,4.34-8,1.07
				c-1.33-3.26-0.49-13.95,15.08-14.4c0.44-2.22-4.51-20.72,3.96-20.61c6.76,0.09,4.11,14.89,3.96,19.04
				c2.37-6.97,2.68-18.64,9.8-15.08c7.12,3.56-4.07,19.26-4.07,19.26s7.63-12.93,12.22-6.93c3.3,4.32-0.88,8.26-6.85,12.59
				c-4.62,3.35-1.88,13.12-1.19,16.76c2.22,11.67,8.97,57.64-26.84,72.32c-18.68,7.66-38.08,1.33-38.08,1.33L282.22,268.78z"/>
			<path class="st7" d="M282.26,268.78l10.66,34.46c0,0,19.39,6.32,38.07-1.34c29.56-12.11,30.13-45.53,28.17-63.4
				c0.29,18.35-4.23,43.18-28.82,53.25c-18.68,7.66-38.08,1.34-38.08,1.34l-6.7-21.67C284.48,270.6,283.37,269.72,282.26,268.78z"/>
			<path class="st8" d="M303.75,276.51c-5.16-0.7-19.3-6.92-24.63-10.17c-13.15-10.39-43.77-11.05-57.14-0.98
				c-1.24,0.93-20.94,11.68-26.2,11.15c-4.27-0.43-5.58,35.11,0,36.66c2.03,0.56,3.96,0.95,5.59,1.23
				c-0.73,23.29-1.37,59.34,2.78,63.99c5.04,5.65,86.56,5.65,91.6,0c4.17-4.68,3.36-40.81,2.57-64.02c1.6-0.27,3.47-0.66,5.43-1.2
				C309.34,311.63,308.01,277.09,303.75,276.51z"/>
			<path class="st7" d="M259.6,252.17H240.3c0,11.79-1.08,17.68,9.65,17.68C260.68,269.85,259.6,263.96,259.6,252.17z"/>
			<path class="st9" d="M356.13,393.78c-4.58-18.78-35.6-24.32-52.28-24.01H198.76c-16.69-0.31-47.7,5.23-52.28,24.01
				c-4.53,18.57,0.8,54.01,104.83,33.93C355.34,447.79,360.66,412.36,356.13,393.78z"/>
			<path class="st10" d="M356.13,393.43c5.34,19.02-0.9,55.27-108.3,33.54c0,0,3.18-20.49-1.71-34.47
				C308.56,370.05,351.88,378.27,356.13,393.43z"/>
			<path class="st9" d="M247.83,426.97c0,0,0.34-2.17,0.63-5.58c96.42,19.1,109.88-9.23,107.44-28.68c0.09,0.24,0.17,0.48,0.24,0.72
				C361.48,412.45,355.24,448.71,247.83,426.97z"/>
			<g>
				<path class="st3" d="M290.63,433.62c-3.1,0.3-6.91,0.16-11.03-0.24c-15.6-1.53-35.37-6.91-35.37-6.91l10.89-28.79
					c0,0,15.06-0.65,27.19-0.55c6.02,0.05,11.32,0.29,13.71,0.88C306.54,400.6,306.9,432.03,290.63,433.62z"/>
				<path class="st11" d="M254.92,405.59c0.4,0.04,24.39,0.8,23.68,1.14c-0.71,0.34-1.62,15.25-1.62,15.25s-24.29-3.4-24.04-3.79
					C253.2,417.8,254.92,405.59,254.92,405.59z"/>
				<path class="st0" d="M290.63,433.62c-3.1,0.3-6.91,0.16-11.03-0.24c-3.29-4.81-4.96-11.85-4.16-19.44
					c0.72-6.8,3.31-12.75,6.88-16.81c6.02,0.05,11.32,0.29,13.71,0.88C306.54,400.6,306.9,432.03,290.63,433.62z"/>
				<path class="st12" d="M290.63,433.62c-1.86,0.19-3.98,0.2-6.27,0.11c0.43-0.03,0.84-0.06,1.23-0.1
					c16.28-1.57,15.91-33.01,5.4-35.62c-2.54-0.63-6.49-0.88-8.67-0.88c4.82,0,10.53,0.09,13.71,0.87
					C306.54,400.6,306.9,432.03,290.63,433.62z"/>
				<g>
					<g>
						<path class="st12" d="M274.44,424.9c-0.65,0-1.26-0.43-1.44-1.09c-1.24-4.39-0.51-9.9,0.41-13.98
							c-1.79,3.14-3.41,7.82-2.88,12.29c0.1,0.82-0.49,1.57-1.31,1.66c-0.83,0.11-1.57-0.49-1.67-1.31
							c-0.96-8.13,4.41-18.64,8.64-19.35c0.52-0.09,1.06,0.11,1.4,0.52c0.34,0.41,0.44,0.97,0.26,1.47
							c-0.04,0.11-3.91,10.98-1.96,17.88c0.23,0.8-0.24,1.63-1.04,1.85C274.71,424.88,274.57,424.9,274.44,424.9z"/>
					</g>
					<g>
						<path class="st12" d="M262.95,423.15c-0.75,0-1.4-0.56-1.49-1.32c-0.96-8.13,4.41-18.64,8.64-19.35
							c0.81-0.14,1.59,0.41,1.73,1.23c0.14,0.82-0.41,1.59-1.23,1.73c-1.77,0.3-7.06,8.46-6.16,16.04c0.1,0.82-0.49,1.57-1.31,1.67
							C263.07,423.15,263.01,423.15,262.95,423.15z"/>
					</g>
					<g>
						<path class="st12" d="M256.88,422.51c-0.75,0-1.4-0.56-1.49-1.32c-0.96-8.13,4.41-18.64,8.64-19.35
							c0.82-0.14,1.59,0.41,1.73,1.23c0.14,0.82-0.41,1.59-1.23,1.73c-1.77,0.3-7.06,8.46-6.17,16.04c0.1,0.82-0.49,1.57-1.31,1.67
							C257,422.5,256.94,422.51,256.88,422.51z"/>
					</g>
				</g>
				<g>
					<g>
						<path class="st0" d="M274.49,424.38c-0.19,0-0.37-0.03-0.56-0.11c-3.99-1.59-7.03-12.99-4.39-20.74
							c0.27-0.78,1.12-1.21,1.9-0.93c0.78,0.27,1.2,1.12,0.93,1.9c-2.47,7.22,0.99,16.31,2.66,16.98c0.77,0.31,1.14,1.18,0.84,1.95
							C275.65,424.02,275.09,424.38,274.49,424.38z"/>
					</g>
					<g>
						<path class="st0" d="M268.42,423.73c-0.19,0-0.37-0.03-0.56-0.11c-3.99-1.59-7.03-12.99-4.39-20.74
							c0.27-0.78,1.12-1.2,1.9-0.93c0.78,0.27,1.2,1.12,0.93,1.9c-2.47,7.22,0.99,16.31,2.66,16.98c0.77,0.31,1.14,1.18,0.84,1.95
							C269.58,423.37,269.02,423.73,268.42,423.73z"/>
					</g>
					<g>
						<path class="st0" d="M262.35,423.09c-0.19,0-0.37-0.03-0.56-0.11c-3.99-1.59-7.03-12.99-4.39-20.74
							c0.27-0.78,1.12-1.2,1.9-0.93c0.78,0.27,1.2,1.12,0.93,1.9c-2.47,7.22,0.99,16.31,2.66,16.98c0.77,0.31,1.14,1.18,0.84,1.95
							C263.51,422.73,262.94,423.09,262.35,423.09z"/>
					</g>
				</g>
			</g>
			<path class="st13" d="M300.47,382.64c-5.08,4.14-95.39,4.76-101.16,0c-5.77-4.76-12.27-76.74-8.81-80.2
				c3.46-3.46,114-3.14,118.79,0C314.08,305.58,305.55,378.5,300.47,382.64z"/>
			<path class="st14" d="M304.77,368.29c-1.47,7.74-2.99,13.29-4.29,14.35c-5.08,4.14-95.39,4.76-101.16,0
				c-5.77-4.75-12.27-76.74-8.82-80.2c0.48-0.47,5.6,46.8,20.39,59.6C236.78,384.43,286.53,378.91,304.77,368.29z"/>
			<g>
				
					<ellipse transform="matrix(0.1549 -0.9879 0.9879 0.1549 -127.4492 536.9598)" class="st0" cx="250.12" cy="342.97" rx="14.8" ry="14.8"/>
				<path class="st0" d="M248.21,325.63c0,0-5.7-9.38-8.75-3.27C237.84,325.63,248.21,325.63,248.21,325.63z"/>
				<path class="st0" d="M251.31,325.63c0,0,5.7-9.38,8.75-3.27C261.68,325.63,251.31,325.63,251.31,325.63z"/>
			</g>
			<path class="st15" d="M181.79,377.64c23.23,1.49,60.98,14.26,75.83,18.14c-2.23,3.51-5.62,31.53-4.11,32.98
				c-108.32,21.97-111.64-17.63-107.03-35.78C147.94,387.26,157.32,376.06,181.79,377.64z"/>
			<path class="st10" d="M253.51,428.76c-100.65,20.41-110.64-12.33-107.86-31.63c2.89,18.33,23.64,38.47,107.86,21.4V428.76z"/>
			<g>
				<path class="st16" d="M297.3,205.82c-0.1,0.08-0.27,0.16-0.49,0.23c-0.79,0.26-2.3,0.45-4.38,0.59
					c-0.49,0.03-1.02,0.06-1.58,0.08c-0.08,0.01-0.16,0.01-0.24,0.01c-0.41,0.02-0.83,0.04-1.27,0.05
					c-0.33,0.02-0.68,0.03-1.04,0.04c-0.59,0.02-1.21,0.03-1.85,0.04c-18.37,0.36-55.01-1.13-72.33-1.91
					c-0.32-0.01-0.63-0.03-0.93-0.04c-0.91-0.04-1.76-0.08-2.54-0.11c-0.42-0.02-0.81-0.04-1.19-0.06
					c-3.06-0.14-4.83-0.23-4.83-0.23c-0.51-0.55-1.06-1.25-1.62-2.06c-3.41-4.84-7.35-13.41-5.08-15.18
					c2.65-2.07,6.62-0.51,6.7-1.72c0.09-1.21-6.25-10.52-3.69-13.45c2.57-2.93,2.57-0.34,3.69-1.38c0.65-0.6-1.17-4.97-1.56-9.38
					c-0.06-0.6-0.08-1.2-0.08-1.79c0.04-2.56,0.75-4.95,2.93-6.42c1.51-1.02,2.4-1.83,2.92-2.49c1.71-2.15-0.36-2.82,2.49-4.4
					c3.73-2.07,8.56,1.03,8.56,1.03s6.72-12.58,10.17-13.1c3.45-0.52,3.1,4.65,6.04,3.96c2.93-0.69,7.24-6.72,10.86-7.93
					c5.23-1.74-1.48,5.52,1.03,5.52c2.52,0,8.11-6.9,16.21-8.1c2.76,2.41-1.21,6.38,5.17,7.41c6.38,1.04,3.45,6.55,7.59,8.45
					c4.14,1.9,3.62,0.52,7.76,1.9c4.13,1.37,2.63,2.75,3.81,7.24c1.19,4.48,0.15,5.34,4.55,7.76c4.4,2.41,9.01,4.31,6.7,9.65
					c-2.3,5.35-2.69,9.14,0,8.1c2.7-1.03,3.21-1.2,2.52,1.9c-0.69,3.1-5.86,10.35-1.55,10.35S301.22,202.74,297.3,205.82z"/>
				<path class="st16" d="M297.3,205.82c-0.1,0.08-0.27,0.16-0.49,0.23c-0.79,0.26-2.3,0.45-4.38,0.59
					c-0.49,0.03-1.02,0.06-1.58,0.08c-0.08,0.01-0.16,0.01-0.24,0.01c-0.41,0.02-0.83,0.04-1.27,0.05
					c-0.33,0.02-0.68,0.03-1.04,0.04c-0.59,0.02-1.21,0.03-1.85,0.04c-18.37,0.36-55.01-1.13-72.33-1.91
					c-0.32-0.01-0.63-0.03-0.93-0.04c-0.91-0.04-1.76-0.08-2.54-0.11c-0.42-0.02-0.81-0.04-1.19-0.06
					c-3.06-0.14-4.83-0.23-4.83-0.23c-0.51-0.55-1.06-1.25-1.62-2.06c-3.41-4.84-7.35-13.41-5.08-15.18
					c2.65-2.07,6.62-0.51,6.7-1.72c0.09-1.21-6.25-10.52-3.69-13.45c2.57-2.93,2.57-0.34,3.69-1.38c0.65-0.6-1.17-4.97-1.56-9.38
					c-0.06-0.6-0.08-1.2-0.08-1.79c0.04-2.56,0.75-4.95,2.93-6.42c1.51-1.02,2.4-1.83,2.92-2.49c1.71-2.15-0.36-2.82,2.49-4.4
					c3.73-2.07,8.56,1.03,8.56,1.03s6.72-12.58,10.17-13.1c3.45-0.52,3.1,4.65,6.04,3.96c2.93-0.69,7.24-6.72,10.86-7.93
					c5.23-1.74-1.48,5.52,1.03,5.52c2.52,0,8.11-6.9,16.21-8.1c2.76,2.41-1.21,6.38,5.17,7.41c6.38,1.04,3.45,6.55,7.59,8.45
					c4.14,1.9,3.62,0.52,7.76,1.9c4.13,1.37,2.63,2.75,3.81,7.24c1.19,4.48,0.15,5.34,4.55,7.76c4.4,2.41,9.01,4.31,6.7,9.65
					c-2.3,5.35-2.69,9.14,0,8.1c2.7-1.03,3.21-1.2,2.52,1.9c-0.69,3.1-5.86,10.35-1.55,10.35S301.22,202.74,297.3,205.82z"/>
				<path class="st17" d="M294.06,203.57c-0.01,0.32-0.02,0.64-0.03,0.96c-0.05,1.04-0.75,1.79-1.6,2.11
					c-0.51,0.19-1.08,0.23-1.58,0.08c-0.03,0-0.06-0.01-0.09-0.02c-0.05,0.02-0.1,0.03-0.15,0.03c-0.41,0.12-0.85,0.13-1.27,0.05
					c-0.37-0.06-0.72-0.21-1.02-0.44c-0.31-0.24-0.56-0.56-0.7-0.96c-0.1-0.27-0.14-0.58-0.13-0.92c0.17-3.81-0.16-7.44-1.08-11.16
					c-0.39-1.55,0.64-2.61,1.83-2.85c0.04-0.02,0.09-0.02,0.13-0.03c-0.19-0.82-0.41-1.63-0.66-2.43c0-0.01,0-0.01-0.01-0.02
					c-0.41-1.33-0.91-2.63-1.51-3.9c-0.08-0.15-0.15-0.3-0.22-0.45c-0.08-0.15-0.16-0.3-0.24-0.44c-0.01-0.02-0.01-0.03-0.02-0.05
					c-0.05-0.11-0.12-0.23-0.19-0.34c-0.11-0.22-0.24-0.44-0.39-0.65c-0.53-0.87-1.12-1.68-1.77-2.43c-0.05-0.06-0.1-0.13-0.16-0.19
					c-3.31-3.78-7.9-6.16-12.74-8.09c-11.61-4.61-25.12-4.27-37.28-1.42c0.35,1.69-0.34,3.52-2.5,4
					c-6.18,2.06-10.91,5.33-16.01,8.94h-0.01c-0.67,0.47-1.34,0.95-2.03,1.43c0,2.08-0.17,4.22-0.58,6.45
					c-0.03,0.2-0.08,0.4-0.14,0.59c0.78,1.91,1.47,3.98,1.85,6.04c0.03,0.03,0.05,0.06,0.08,0.09c0.33,0.38,0.63,0.84,0.85,1.39
					c0.76,1.91,0.36,3.59-0.63,4.96v0.01c-0.25,0.36-0.54,0.69-0.87,1c-0.02,0.03-0.05,0.05-0.08,0.08
					c-0.34,0.62-0.78,1.17-1.28,1.63c-0.65,0.61-1.41,1.08-2.23,1.41c-0.23,0.08-0.47,0.16-0.71,0.22
					c-0.14,0.05-0.27,0.08-0.41,0.11c-1.72,0.38-3.6,0.17-5.28-0.74c-0.96-0.52-1.93-1.27-2.86-2.19c0.47-0.97,1.08-1.79,1.8-2.37
					c0.29-0.24,0.58-0.44,0.87-0.61c-3.41-4.84-7.35-13.41-5.08-15.18c2.65-2.07,6.62-0.51,6.7-1.72
					c0.09-1.21-6.25-10.52-3.69-13.45c2.57-2.93,2.57-0.34,3.69-1.38c0.65-0.6-1.17-4.97-1.56-9.38c0.02-0.01,0.05-0.01,0.07-0.02
					c-0.08-0.59-0.14-1.19-0.15-1.77c0.04-2.56,0.75-4.95,2.93-6.42c1.51-1.02,2.4-1.83,2.92-2.49c0.38,0.1,0.69,0.49,0.55,0.92
					c-1.19,3.52-2.59,6.21-1.21,9.94c0.83-0.95,1.72-1.83,2.67-2.7c1.99-1.82,4.85,0.78,3.48,2.79c0.73,0.03,1.45,0.14,2.16,0.33
					c1.53-3.49,3.27-6.8,7.12-8.46c1.44-0.62,3.4,0.41,2.85,2.2c-0.14,0.44-0.3,0.95-0.46,1.5c0.36-0.62,0.65-1.11,0.82-1.36
					c1.24-1.85,3.95-2.35,5.87-1.53c2.03-1.95,4.1-3.86,6.22-5.68c3.52-3.02,6.86-5.07,11.57-4.38c2.96,0.43,3.11,4.84,0.8,6.15
					c-0.76,0.48-1.5,1-2.22,1.52c-0.79,0.63-1.53,1.32-2.23,2.09l-0.02,0.03c-0.18,0.27-1.7,2.15-2.67,3.24
					c0.06,0.08,0.14,0.14,0.19,0.22c2.75-0.48,5.59-1.87,7.81-2.77c3.48-1.41,6.72-2.4,10.51-2.45c2.63-0.03,4.04,2.44,3.79,4.61
					c3.54,0.13,7.08,0.15,10.64,0.01c1.48-0.06,2.18,1.37,2,2.62c-0.13,0.82-0.32,1.53-0.59,2.19c0.96-0.12,1.93-0.2,2.9-0.23
					c1.15-0.02,1.27,1.59,0.26,1.92c-1.99,0.67-4.03,1.15-6.05,1.73c-1.17,0.34-2.37-1.02-1.75-2.1c-1.48,0.51-2.95,0.77-4.45,0.85
					c2.24,0.68,4.41,1.51,6.5,2.54C289.46,173.07,294.43,189.48,294.06,203.57z"/>
				<g>
					<path class="st7" d="M212.39,227.1c-0.2,0-0.39-0.01-0.58-0.03c-12.29-0.68-14.81-14.96-11.47-21.64
						c0.47-0.97,1.08-1.79,1.8-2.37c0.29-0.24,0.58-0.44,0.87-0.61c2.62-1.58,4.84-0.5,6.42,0.98c0.46,0.44,0.87,0.91,1.22,1.37
						c0.58,0.75,0.99,1.45,1.18,1.82c0.1,0.17,0.15,0.27,0.15,0.27L212.39,227.1z"/>
					<path class="st18" d="M206.68,214.3c0.03-0.26,0.08-0.52,0.15-0.78c0.4-1.65,1.36-3.28,2.3-4.68c0.22-0.33-0.21-0.75-0.54-0.55
						c-3.05,1.84-5.71,5.77-4.43,9.46c0.98,2.83,5.61,4.69,7.11,1.28C212.44,216.34,209.61,212.48,206.68,214.3z"/>
				</g>
				<g>
					<path class="st7" d="M285.79,228.46c-0.03,0.01-0.05,0.01-0.08,0.01c-0.17,0.01-0.34,0.02-0.52,0.02l0.01-0.69l0.4-19.51
						c0,0,0.3-0.62,0.85-1.43c0.47-0.69,1.12-1.52,1.93-2.23c1.74-1.54,4.2-2.49,7.06-0.17c0.52,0.42,0.98,0.96,1.37,1.59
						C300.76,212.31,298.57,227.75,285.79,228.46z"/>
					<path class="st18" d="M290.89,215.69c-0.03-0.26-0.08-0.52-0.15-0.78c-0.4-1.65-1.36-3.28-2.3-4.68
						c-0.22-0.33,0.21-0.75,0.54-0.55c3.05,1.84,5.71,5.77,4.43,9.46c-0.98,2.83-5.61,4.69-7.11,1.28
						C285.13,217.74,287.96,213.88,290.89,215.69z"/>
				</g>
				<path class="st6" d="M288.53,194.19c0,3.65-0.04,7.13-0.15,10.44c-0.02,0.74-0.05,1.47-0.08,2.19
					c-0.12,3.14-0.31,6.12-0.58,8.95c-0.19,1.98-0.41,3.89-0.69,5.72c-0.35,2.43-0.78,4.73-1.31,6.9c0,0.02,0,0.05-0.01,0.08
					c-1.53,6.29-3.83,11.44-7.22,15.44c-5.93,7.01-15.2,10.52-29.57,10.52c-14.58,0-23.92-3.61-29.84-10.84
					c-2.82-3.44-4.86-7.71-6.33-12.79c-0.34-1.2-0.66-2.44-0.94-3.73c-0.49-2.22-0.89-4.57-1.21-7.05
					c-0.24-1.77-0.43-3.62-0.59-5.53c-0.26-3.07-0.44-6.32-0.55-9.75c-0.01-0.43-0.03-0.87-0.03-1.31
					c-0.09-2.95-0.12-6.03-0.12-9.24C209.31,157.47,288.53,157.47,288.53,194.19z"/>
				<path class="st7" d="M279.65,242.45c-0.37,0.5-0.76,0.99-1.16,1.46c-5.93,7.01-15.2,10.52-29.57,10.52
					c-14.58,0-23.92-3.61-29.84-10.84c-2.82-3.44-4.86-7.71-6.33-12.79c-0.34-1.2-0.66-2.44-0.94-3.73
					c-0.49-2.22-0.89-4.57-1.21-7.05c-0.24-1.77-0.43-3.62-0.59-5.53c-0.26-3.07-0.44-6.32-0.55-9.75
					c-0.01-0.43-0.03-0.87-0.03-1.31c-0.09-2.95-0.12-6.03-0.12-9.24c0-7.56,3.36-13.57,8.7-18.01c-2.69,3.71-4.26,8.15-4.26,13.31
					c0,3.21,0.03,6.29,0.12,9.24c0,0.44,0.02,0.88,0.03,1.31c0.11,3.43,0.29,6.68,0.55,9.75c0.16,1.91,0.35,3.76,0.59,5.53
					c0.32,2.48,0.72,4.83,1.21,7.05c0.28,1.29,0.6,2.53,0.94,3.73c1.47,5.08,3.51,9.35,6.33,12.79
					c5.92,7.23,15.26,10.84,29.84,10.84C265.31,249.73,273.74,247.3,279.65,242.45z"/>
				<g>
					<path class="st16" d="M229.62,221.71c-4.52,0-9.1-3.56-9.1-10.37c0-0.83,0.67-1.5,1.5-1.5s1.5,0.67,1.5,1.5
						c0,5.06,3.16,7.37,6.1,7.37c2.94,0,6.1-2.3,6.1-7.37c0-0.83,0.67-1.5,1.5-1.5c0.83,0,1.5,0.67,1.5,1.5
						C238.73,218.15,234.15,221.71,229.62,221.71z"/>
				</g>
				<g>
					<path class="st16" d="M269.76,221.71c-4.52,0-9.1-3.56-9.1-10.37c0-0.83,0.67-1.5,1.5-1.5c0.83,0,1.5,0.67,1.5,1.5
						c0,5.06,3.16,7.37,6.1,7.37c2.94,0,6.1-2.3,6.1-7.37c0-0.83,0.67-1.5,1.5-1.5s1.5,0.67,1.5,1.5
						C278.86,218.15,274.29,221.71,269.76,221.71z"/>
				</g>
				<g>
					<path class="st16" d="M233.61,191.69c-0.5,0-0.98-0.25-1.27-0.7c-1-1.58-1.97-2.45-2.72-2.45c-0.75,0-1.72,0.87-2.72,2.45
						c-0.44,0.7-1.37,0.91-2.07,0.47c-0.7-0.44-0.91-1.37-0.47-2.07c1.64-2.59,3.36-3.85,5.25-3.85c1.9,0,3.62,1.26,5.25,3.85
						c0.44,0.7,0.23,1.63-0.47,2.07C234.16,191.61,233.89,191.69,233.61,191.69z"/>
				</g>
				<g>
					<path class="st16" d="M273.75,191.69c-0.5,0-0.98-0.25-1.27-0.7c-1-1.58-1.97-2.45-2.72-2.45c-0.75,0-1.72,0.87-2.72,2.45
						c-0.44,0.7-1.37,0.91-2.07,0.47c-0.7-0.44-0.91-1.37-0.47-2.07c1.64-2.59,3.36-3.85,5.25-3.85c1.9,0,3.62,1.26,5.25,3.85
						c0.44,0.7,0.23,1.63-0.47,2.07C274.3,191.61,274.02,191.69,273.75,191.69z"/>
				</g>
				<path class="st16" d="M250.63,241h-0.47c-1.3,0-2.36-1.06-2.36-2.36v-4.36c0-1.3,1.06-2.36,2.36-2.36h0.47
					c1.3,0,2.36,1.06,2.36,2.36v4.36C252.99,239.94,251.93,241,250.63,241z"/>
			</g>
			<g class="st19">
				<path class="st20" d="M231.04,234.4c0,5.25-4.25,9.51-9.5,9.51c-0.85,0-1.67-0.11-2.46-0.32c-2.82-3.44-4.86-7.71-6.33-12.79
					c1.41-3.46,4.81-5.9,8.79-5.9C226.79,224.9,231.04,229.16,231.04,234.4z"/>
				<path class="st20" d="M285.79,228.46c-0.03,0.01-0.05,0.01-0.08,0.01c-1.53,6.29-3.83,11.44-7.22,15.44h-0.12
					c-5.25,0-9.51-4.26-9.51-9.51c0-5.24,4.26-9.5,9.51-9.5c2.68,0,5.11,1.11,6.83,2.9c0.19,0.19,0.36,0.38,0.52,0.59
					C285.75,228.41,285.77,228.43,285.79,228.46z"/>
			</g>
		</g>
	</g>
</g>
<g id="Layer_4">
	<g>
		<g>
			<path class="st21" d="M113.76,456.62h3.42v-10.79h-3.42v-1.49h8.61v1.49h-3.42v10.79h3.42v1.49h-8.61V456.62z"/>
			<path class="st21" d="M125.85,456.77l0.8-1.15c1.18,0.84,2.56,1.38,4.43,1.38c1.72,0,2.56-0.71,2.56-1.57
				c0-0.78-0.4-1.32-3.17-1.89c-2.67-0.55-3.99-1.45-3.99-2.98c0-1.64,1.45-2.9,4.24-2.9c1.55,0,3.11,0.61,4.12,1.3l-0.84,1.11
				c-0.94-0.65-2.12-1.07-3.42-1.07c-1.72,0-2.35,0.69-2.35,1.47c0,0.88,0.88,1.26,2.98,1.7c3.38,0.73,4.2,1.57,4.2,3.15
				c0,1.66-1.62,3.04-4.54,3.04C128.88,458.37,127.09,457.63,125.85,456.77z"/>
			<path class="st21" d="M151.24,453.03c0-3.42,2.6-5.38,5.69-5.38c1.66,0,2.88,0.67,3.72,1.49l-0.86,1.11
				c-0.84-0.71-1.72-1.16-2.79-1.16c-2.35,0-3.97,1.58-3.97,3.93c0,2.33,1.6,3.88,3.93,3.88c1.26,0,2.31-0.57,3.15-1.28l0.78,1.13
				c-1.13,1.01-2.54,1.6-4.05,1.6C153.64,458.37,151.24,456.41,151.24,453.03z"/>
			<path class="st21" d="M163.42,453.03c0-3.42,2.35-5.38,5.04-5.38s5.04,1.95,5.04,5.38c0,3.38-2.35,5.33-5.04,5.33
				S163.42,456.41,163.42,453.03z M171.71,453.03c0-2.35-1.3-3.93-3.25-3.93s-3.25,1.58-3.25,3.93c0,2.33,1.3,3.88,3.25,3.88
				S171.71,455.36,171.71,453.03z"/>
			<path class="st21" d="M176.02,453.03c0-3.32,2.2-5.38,4.62-5.38c1.22,0,2.16,0.48,3.07,1.3h0.04l-0.08-1.87v-3.93h1.74v14.95
				h-1.43l-0.15-1.34h-0.06c-0.84,0.86-2.06,1.6-3.34,1.6C177.78,458.37,176.02,456.43,176.02,453.03z M183.66,455.38v-5.08
				c-0.92-0.86-1.78-1.18-2.67-1.18c-1.76,0-3.19,1.55-3.19,3.88c0,2.44,1.13,3.88,3,3.88C181.82,456.9,182.76,456.39,183.66,455.38
				z"/>
			<path class="st21" d="M188.79,452.99c0-3.32,2.48-5.33,5.21-5.33c2.94,0,4.66,1.91,4.66,4.79c0,0.4-0.04,0.78-0.08,1.05h-8.63
				v-1.34h7.6l-0.44,0.48c0-2.41-1.2-3.61-3.07-3.61c-1.89,0-3.53,1.43-3.53,3.97c0,2.65,1.72,3.99,3.99,3.99
				c1.22,0,2.18-0.38,3.11-0.97l0.63,1.13c-1.01,0.67-2.31,1.22-3.95,1.22C191.22,458.37,188.79,456.39,188.79,452.99z"/>
			<path class="st21" d="M217.73,454.69v-10.12h-3.61v-1.41h5.35v11.65c0,1.47,0.8,2.1,2.02,2.1c0.59,0,1.22-0.15,1.91-0.46
				l0.44,1.3c-0.94,0.4-1.62,0.61-2.73,0.61C218.92,458.37,217.73,457.11,217.73,454.69z"/>
			<path class="st21" d="M231.77,449.32h-4.72v-1.41h6.47v10.2h-1.74V449.32z M231.08,444.42c0-0.8,0.59-1.34,1.39-1.34
				s1.39,0.55,1.39,1.34c0,0.82-0.59,1.34-1.39,1.34S231.08,445.24,231.08,444.42z"/>
			<path class="st21" d="M238.81,447.91h1.78l2.35,5.77c0.4,1.03,0.78,2.04,1.13,3.02h0.08c0.36-0.99,0.69-2,1.11-3.02l2.35-5.77
				h1.68l-4.24,10.2h-1.95L238.81,447.91z"/>
			<path class="st21" d="M256.97,449.32h-4.72v-1.41h6.47v10.2h-1.74V449.32z M256.28,444.42c0-0.8,0.59-1.34,1.39-1.34
				c0.8,0,1.38,0.55,1.38,1.34c0,0.82-0.59,1.34-1.38,1.34C256.87,445.77,256.28,445.24,256.28,444.42z"/>
			<path class="st21" d="M264.91,447.91h1.43l0.15,1.72h0.08c1.07-1.11,2.25-1.97,3.84-1.97c2.42,0,3.53,1.43,3.53,4.12v6.34h-1.74
				V452c0-1.93-0.67-2.83-2.33-2.83c-1.22,0-2.04,0.61-3.21,1.83v7.12h-1.74V447.91z"/>
			<path class="st21" d="M277.07,459.98c0-0.82,0.59-1.64,1.68-2.27v-0.08c-0.55-0.29-1.05-0.82-1.05-1.68
				c0-0.65,0.44-1.39,1.22-1.91v-0.08c-0.69-0.52-1.26-1.43-1.26-2.65c0-2.23,1.85-3.65,4.01-3.65c0.59,0,1.07,0.08,1.51,0.25h4.22
				v1.41h-2.65c0.46,0.48,0.86,1.24,0.86,2.06c0,2.18-1.74,3.51-3.95,3.51c-0.52,0-1.15-0.13-1.72-0.38c-0.5,0.31-0.8,0.69-0.8,1.18
				c0,0.8,0.78,1.18,2.12,1.18h2.29c2.62,0,3.88,0.67,3.88,2.39c0,1.91-2.2,3.57-5.67,3.57
				C278.79,462.82,277.07,461.79,277.07,459.98z M285.74,459.52c0-0.96-0.78-1.24-2.33-1.24h-2c-0.59,0-1.11-0.04-1.55-0.17
				c-0.97,0.53-1.3,1.11-1.3,1.7c0,1.07,1.16,1.74,3.34,1.74C284.27,461.56,285.74,460.57,285.74,459.52z M284.02,451.31
				c0-1.43-1.05-2.39-2.35-2.39c-1.28,0-2.35,0.97-2.35,2.39c0,1.47,1.07,2.41,2.35,2.41C282.97,453.72,284.02,452.78,284.02,451.31
				z"/>
			<path class="st21" d="M296.51,447.26c0-1.13-0.8-2.02-2.31-2.02c-1.07,0-1.97,0.46-2.73,1.2l-1.03-0.95
				c0.94-0.99,2.25-1.7,3.86-1.7c2.33,0,3.9,1.28,3.9,3.28c0,2.86-3.8,3.44-3.44,6.15h-1.53
				C292.74,450.24,296.51,449.4,296.51,447.26z M292.61,456.73c0-1.01,0.71-1.62,1.55-1.62s1.55,0.61,1.55,1.62
				s-0.71,1.64-1.55,1.64S292.61,457.74,292.61,456.73z"/>
			<path class="st21" d="M315.35,456.62h3.42v-10.79h-3.42v-1.49h8.61v1.49h-3.42v10.79h3.42v1.49h-8.61V456.62z"/>
			<path class="st21" d="M330.51,449.78c1.41-0.82,2.2-2.04,2.2-3.63l-0.42-1.64l1.16,1.41c-0.36,0.38-0.84,0.67-1.3,0.67
				c-0.88,0-1.49-0.63-1.49-1.51c0-0.96,0.65-1.64,1.55-1.64c1.11,0,1.89,0.94,1.89,2.56c0,2.1-1.11,3.82-3,4.79L330.51,449.78z"/>
			<path class="st21" d="M339.77,447.91h1.39l0.15,1.34h0.04c0.52-0.94,1.15-1.6,2.33-1.6c1.01,0,1.64,0.59,1.93,1.76
				c0.59-1.09,1.22-1.76,2.39-1.76c1.43,0,2.27,1.11,2.27,3.15v7.31h-1.72v-7.18c0-1.18-0.34-1.78-1.09-1.78
				c-0.71,0-1.09,0.52-1.64,1.57v7.39h-1.6v-7.18c0-1.18-0.29-1.78-1.05-1.78c-0.71,0-1.18,0.52-1.68,1.57v7.39h-1.72V447.91z"/>
			<path class="st21" d="M365.75,456.62h3.42v-10.79h-3.42v-1.49h8.61v1.49h-3.42v10.79h3.42v1.49h-8.61V456.62z"/>
			<path class="st21" d="M113.44,478.23c0-3.42,2.6-5.38,5.69-5.38c1.66,0,2.88,0.67,3.72,1.49l-0.86,1.11
				c-0.84-0.71-1.72-1.16-2.79-1.16c-2.35,0-3.97,1.58-3.97,3.93c0,2.33,1.6,3.88,3.93,3.88c1.26,0,2.31-0.57,3.15-1.28l0.78,1.13
				c-1.13,1.01-2.54,1.6-4.05,1.6C115.84,483.56,113.44,481.61,113.44,478.23z"/>
			<path class="st21" d="M125.62,478.23c0-3.42,2.35-5.38,5.04-5.38s5.04,1.95,5.04,5.38c0,3.38-2.35,5.33-5.04,5.33
				S125.62,481.61,125.62,478.23z M133.92,478.23c0-2.35-1.3-3.93-3.25-3.93s-3.25,1.58-3.25,3.93c0,2.33,1.3,3.88,3.25,3.88
				S133.92,480.56,133.92,478.23z"/>
			<path class="st21" d="M138.22,478.23c0-3.32,2.2-5.38,4.62-5.38c1.22,0,2.16,0.48,3.07,1.3h0.04l-0.08-1.87v-3.93h1.74v14.95
				h-1.43l-0.15-1.34h-0.06c-0.84,0.86-2.06,1.6-3.34,1.6C139.99,483.56,138.22,481.63,138.22,478.23z M145.86,480.58v-5.08
				c-0.92-0.86-1.78-1.18-2.67-1.18c-1.76,0-3.19,1.55-3.19,3.88c0,2.44,1.13,3.88,3,3.88
				C144.02,482.09,144.96,481.59,145.86,480.58z"/>
			<path class="st21" d="M156.18,474.52h-4.72v-1.41h6.47v10.2h-1.74V474.52z M155.48,469.62c0-0.8,0.59-1.34,1.39-1.34
				s1.39,0.55,1.39,1.34c0,0.82-0.59,1.34-1.39,1.34S155.48,470.44,155.48,469.62z"/>
			<path class="st21" d="M164.11,473.11h1.43l0.15,1.72h0.08c1.07-1.11,2.25-1.97,3.84-1.97c2.41,0,3.53,1.43,3.53,4.12v6.34h-1.74
				v-6.11c0-1.93-0.67-2.83-2.33-2.83c-1.22,0-2.04,0.61-3.21,1.83v7.12h-1.74V473.11z"/>
			<path class="st21" d="M176.27,485.18c0-0.82,0.59-1.64,1.68-2.27v-0.08c-0.55-0.29-1.05-0.82-1.05-1.68
				c0-0.65,0.44-1.39,1.22-1.91v-0.08c-0.69-0.52-1.26-1.43-1.26-2.65c0-2.23,1.85-3.65,4.01-3.65c0.59,0,1.07,0.08,1.51,0.25h4.22
				v1.41h-2.65c0.46,0.48,0.86,1.24,0.86,2.06c0,2.18-1.74,3.51-3.95,3.51c-0.52,0-1.15-0.13-1.72-0.38c-0.5,0.31-0.8,0.69-0.8,1.18
				c0,0.8,0.78,1.18,2.12,1.18h2.29c2.62,0,3.88,0.67,3.88,2.39c0,1.91-2.2,3.57-5.67,3.57
				C177.99,488.02,176.27,486.99,176.27,485.18z M184.94,484.72c0-0.96-0.78-1.24-2.33-1.24h-1.99c-0.59,0-1.11-0.04-1.55-0.17
				c-0.97,0.53-1.3,1.11-1.3,1.7c0,1.07,1.15,1.74,3.34,1.74C183.47,486.76,184.94,485.77,184.94,484.72z M183.22,476.51
				c0-1.43-1.05-2.39-2.35-2.39c-1.28,0-2.35,0.97-2.35,2.39c0,1.47,1.07,2.41,2.35,2.41C182.17,478.92,183.22,477.98,183.22,476.51
				z"/>
			<path class="st21" d="M201.22,478.23c0-3.42,2.35-5.38,5.04-5.38s5.04,1.95,5.04,5.38c0,3.38-2.35,5.33-5.04,5.33
				S201.22,481.61,201.22,478.23z M209.51,478.23c0-2.35-1.3-3.93-3.25-3.93s-3.25,1.58-3.25,3.93c0,2.33,1.3,3.88,3.25,3.88
				S209.51,480.56,209.51,478.23z"/>
			<path class="st21" d="M215.6,473.11h1.45l0.17,2.42h0.04c1.07-1.66,2.67-2.67,4.56-2.67c0.76,0,1.39,0.1,2.02,0.42l-0.4,1.49
				c-0.71-0.23-1.09-0.34-1.89-0.34c-1.53,0-2.98,0.78-4.2,2.92v5.96h-1.74V473.11z"/>
			<path class="st21" d="M239.75,481.82h3.42v-10.79h-3.42v-1.49h8.61v1.49h-3.42v10.79h3.42v1.49h-8.61V481.82z"/>
			<path class="st21" d="M264.64,480.67c0-2.29,2.14-3.4,7.41-3.82c-0.06-1.39-0.74-2.56-2.71-2.56c-1.32,0-2.63,0.63-3.57,1.22
				l-0.69-1.18c1.05-0.67,2.77-1.47,4.56-1.47c2.79,0,4.16,1.66,4.16,4.2v6.26h-1.45l-0.15-1.39h-0.06
				c-1.11,0.88-2.58,1.64-4.01,1.64C266.21,483.56,264.64,482.49,264.64,480.67z M272.05,480.65V478c-4.37,0.34-5.69,1.2-5.69,2.54
				c0,1.15,1.05,1.62,2.23,1.62C269.74,482.16,270.88,481.61,272.05,480.65z"/>
			<path class="st21" d="M276.78,473.11h1.39l0.15,1.34h0.04c0.52-0.94,1.15-1.6,2.33-1.6c1.01,0,1.64,0.59,1.93,1.76
				c0.59-1.09,1.22-1.76,2.39-1.76c1.43,0,2.27,1.11,2.27,3.15v7.31h-1.72v-7.18c0-1.18-0.34-1.78-1.09-1.78
				c-0.71,0-1.09,0.52-1.64,1.57v7.39h-1.6v-7.18c0-1.18-0.29-1.78-1.05-1.78c-0.71,0-1.18,0.52-1.68,1.57v7.39h-1.72V473.11z"/>
			<path class="st21" d="M302.44,478.23c0-3.42,2.6-5.38,5.69-5.38c1.66,0,2.88,0.67,3.72,1.49l-0.86,1.11
				c-0.84-0.71-1.72-1.16-2.79-1.16c-2.35,0-3.97,1.58-3.97,3.93c0,2.33,1.6,3.88,3.93,3.88c1.26,0,2.31-0.57,3.15-1.28l0.78,1.13
				c-1.13,1.01-2.54,1.6-4.05,1.6C304.83,483.56,302.44,481.61,302.44,478.23z"/>
			<path class="st21" d="M314.62,478.23c0-3.42,2.35-5.38,5.04-5.38s5.04,1.95,5.04,5.38c0,3.38-2.35,5.33-5.04,5.33
				S314.62,481.61,314.62,478.23z M322.91,478.23c0-2.35-1.3-3.93-3.25-3.93s-3.25,1.58-3.25,3.93c0,2.33,1.3,3.88,3.25,3.88
				S322.91,480.56,322.91,478.23z"/>
			<path class="st21" d="M327.22,478.23c0-3.32,2.21-5.38,4.62-5.38c1.22,0,2.16,0.48,3.07,1.3h0.04l-0.08-1.87v-3.93h1.74v14.95
				h-1.43l-0.15-1.34h-0.06c-0.84,0.86-2.06,1.6-3.34,1.6C328.98,483.56,327.22,481.63,327.22,478.23z M334.86,480.58v-5.08
				c-0.92-0.86-1.79-1.18-2.67-1.18c-1.76,0-3.19,1.55-3.19,3.88c0,2.44,1.13,3.88,3,3.88
				C333.01,482.09,333.96,481.59,334.86,480.58z"/>
			<path class="st21" d="M339.98,478.19c0-3.32,2.48-5.33,5.21-5.33c2.94,0,4.66,1.91,4.66,4.79c0,0.4-0.04,0.78-0.08,1.05h-8.63
				v-1.34h7.6l-0.44,0.48c0-2.41-1.2-3.61-3.07-3.61c-1.89,0-3.53,1.43-3.53,3.97c0,2.65,1.72,3.99,3.99,3.99
				c1.22,0,2.18-0.38,3.11-0.97l0.63,1.13c-1.01,0.67-2.31,1.22-3.95,1.22C342.42,483.56,339.98,481.59,339.98,478.19z"/>
			<path class="st21" d="M365.58,477.81h8.65v1.22h-8.65V477.81z M366,473.51h8.65v1.22H366V473.51z M368.42,469.67h1.11
				l-1.66,13.65h-1.13L368.42,469.67z M372.32,469.67h1.11l-1.66,13.65h-1.13L372.32,469.67z"/>
		</g>
	</g>
	<g>
		<g>
			<path d="M452.85,708.41h1.74v12.28h6.8v1.49h-8.55V708.41z"/>
			<path d="M463.89,717.11c0-3.42,2.35-5.38,5.04-5.38s5.04,1.95,5.04,5.38c0,3.38-2.35,5.33-5.04,5.33S463.89,720.49,463.89,717.11
				z M472.19,717.11c0-2.35-1.3-3.93-3.25-3.93s-3.25,1.57-3.25,3.93c0,2.33,1.3,3.88,3.25,3.88S472.19,719.44,472.19,717.11z"/>
			<path d="M478.28,711.98h1.45l0.17,2.41h0.04c1.07-1.66,2.67-2.67,4.56-2.67c0.76,0,1.38,0.11,2.02,0.42l-0.4,1.49
				c-0.71-0.23-1.09-0.34-1.89-0.34c-1.53,0-2.98,0.78-4.2,2.92v5.96h-1.74V711.98z"/>
			<path d="M489.26,717.06c0-3.32,2.48-5.33,5.21-5.33c2.94,0,4.66,1.91,4.66,4.79c0,0.4-0.04,0.78-0.08,1.05h-8.63v-1.34h7.6
				l-0.44,0.48c0-2.42-1.2-3.61-3.07-3.61c-1.89,0-3.53,1.43-3.53,3.97c0,2.65,1.72,3.99,3.99,3.99c1.22,0,2.18-0.38,3.11-0.97
				l0.63,1.13c-1.01,0.67-2.31,1.22-3.95,1.22C491.7,722.44,489.26,720.46,489.26,717.06z"/>
			<path d="M501.65,711.98h1.39l0.15,1.34h0.04c0.53-0.95,1.16-1.6,2.33-1.6c1.01,0,1.64,0.59,1.93,1.76
				c0.59-1.09,1.22-1.76,2.39-1.76c1.43,0,2.27,1.11,2.27,3.15v7.31h-1.72v-7.18c0-1.18-0.34-1.79-1.09-1.79
				c-0.71,0-1.09,0.53-1.64,1.58v7.39h-1.6v-7.18c0-1.18-0.29-1.79-1.05-1.79c-0.71,0-1.18,0.53-1.68,1.58v7.39h-1.72V711.98z"/>
			<path d="M532.25,713.39h-4.72v-1.41h6.47v10.2h-1.74V713.39z M531.55,708.5c0-0.8,0.59-1.34,1.39-1.34s1.39,0.55,1.39,1.34
				c0,0.82-0.59,1.34-1.39,1.34S531.55,709.32,531.55,708.5z"/>
			<path d="M540.18,711.98h1.43l0.15,1.3h0.06c0.94-0.9,2.29-1.55,3.53-1.55c2.75,0,4.22,2.04,4.22,5.21c0,3.46-2.18,5.5-4.64,5.5
				c-0.95,0-2.12-0.48-3.04-1.32h-0.04l0.08,1.93v3.44h-1.74V711.98z M547.79,716.94c0-2.25-0.84-3.74-2.88-3.74
				c-0.9,0-1.95,0.46-2.98,1.51v5.08c0.94,0.86,2.02,1.18,2.71,1.18C546.44,720.97,547.79,719.46,547.79,716.94z"/>
			<path d="M552.32,720.84l0.8-1.16c1.18,0.84,2.56,1.39,4.43,1.39c1.72,0,2.56-0.71,2.56-1.58c0-0.78-0.4-1.32-3.17-1.89
				c-2.67-0.55-3.99-1.45-3.99-2.98c0-1.64,1.45-2.9,4.24-2.9c1.55,0,3.11,0.61,4.12,1.3l-0.84,1.11c-0.94-0.65-2.12-1.07-3.42-1.07
				c-1.72,0-2.35,0.69-2.35,1.47c0,0.88,0.88,1.26,2.98,1.7c3.38,0.74,4.2,1.58,4.2,3.15c0,1.66-1.62,3.04-4.54,3.04
				C555.35,722.44,553.56,721.7,552.32,720.84z"/>
			<path d="M565.05,718.32v-6.34h1.74v6.11c0,1.91,0.67,2.83,2.35,2.83c1.18,0,2.04-0.55,3.17-1.87v-7.08h1.74v10.2h-1.45
				l-0.15-1.78h-0.08c-1.03,1.2-2.23,2.04-3.8,2.04C566.16,722.44,565.05,721.01,565.05,718.32z"/>
			<path d="M577.25,711.98h1.39l0.15,1.34h0.04c0.52-0.95,1.15-1.6,2.33-1.6c1.01,0,1.64,0.59,1.93,1.76
				c0.59-1.09,1.22-1.76,2.39-1.76c1.43,0,2.27,1.11,2.27,3.15v7.31h-1.72v-7.18c0-1.18-0.34-1.79-1.09-1.79
				c-0.71,0-1.09,0.53-1.64,1.58v7.39h-1.6v-7.18c0-1.18-0.29-1.79-1.05-1.79c-0.71,0-1.18,0.53-1.68,1.58v7.39h-1.72V711.98z"/>
		</g>
	</g>
	<g>
		<g>
			<path d="M687.92,458.05h1.74v12.28h6.8v1.49h-8.54V458.05z"/>
			<path d="M698.96,466.75c0-3.42,2.35-5.38,5.04-5.38s5.04,1.95,5.04,5.38c0,3.38-2.35,5.33-5.04,5.33S698.96,470.13,698.96,466.75
				z M707.26,466.75c0-2.35-1.3-3.93-3.25-3.93s-3.25,1.58-3.25,3.93c0,2.33,1.3,3.88,3.25,3.88S707.26,469.08,707.26,466.75z"/>
			<path d="M713.35,461.62h1.45l0.17,2.42H715c1.07-1.66,2.67-2.67,4.56-2.67c0.76,0,1.39,0.1,2.02,0.42l-0.4,1.49
				c-0.71-0.23-1.09-0.34-1.89-0.34c-1.53,0-2.98,0.78-4.2,2.92v5.96h-1.74V461.62z"/>
			<path d="M724.33,466.71c0-3.32,2.48-5.33,5.21-5.33c2.94,0,4.66,1.91,4.66,4.79c0,0.4-0.04,0.78-0.08,1.05h-8.63v-1.34h7.6
				l-0.44,0.48c0-2.41-1.2-3.61-3.07-3.61c-1.89,0-3.53,1.43-3.53,3.97c0,2.65,1.72,3.99,3.99,3.99c1.22,0,2.18-0.38,3.11-0.97
				l0.63,1.13c-1.01,0.67-2.31,1.22-3.95,1.22C726.77,472.08,724.33,470.11,724.33,466.71z"/>
			<path d="M736.72,461.62h1.39l0.15,1.34h0.04c0.52-0.94,1.15-1.6,2.33-1.6c1.01,0,1.64,0.59,1.93,1.76
				c0.59-1.09,1.22-1.76,2.39-1.76c1.43,0,2.27,1.11,2.27,3.15v7.31h-1.72v-7.18c0-1.18-0.34-1.78-1.09-1.78
				c-0.71,0-1.09,0.52-1.64,1.57v7.39h-1.6v-7.18c0-1.18-0.29-1.78-1.05-1.78c-0.71,0-1.18,0.52-1.68,1.57v7.39h-1.72V461.62z"/>
			<path d="M767.31,463.03h-4.72v-1.41h6.47v10.2h-1.74V463.03z M766.62,458.14c0-0.8,0.59-1.34,1.39-1.34s1.39,0.55,1.39,1.34
				c0,0.82-0.59,1.34-1.39,1.34S766.62,458.96,766.62,458.14z"/>
			<path d="M775.25,461.62h1.43l0.15,1.3h0.06c0.95-0.9,2.29-1.55,3.53-1.55c2.75,0,4.22,2.04,4.22,5.21c0,3.46-2.18,5.5-4.64,5.5
				c-0.94,0-2.12-0.48-3.04-1.32h-0.04l0.08,1.93v3.44h-1.74V461.62z M782.85,466.58c0-2.25-0.84-3.74-2.88-3.74
				c-0.9,0-1.95,0.46-2.98,1.51v5.08c0.95,0.86,2.02,1.18,2.71,1.18C781.51,470.61,782.85,469.1,782.85,466.58z"/>
			<path d="M787.39,470.48l0.8-1.15c1.18,0.84,2.56,1.38,4.43,1.38c1.72,0,2.56-0.71,2.56-1.57c0-0.78-0.4-1.32-3.17-1.89
				c-2.67-0.55-3.99-1.45-3.99-2.98c0-1.64,1.45-2.9,4.24-2.9c1.55,0,3.11,0.61,4.12,1.3l-0.84,1.11c-0.95-0.65-2.12-1.07-3.42-1.07
				c-1.72,0-2.35,0.69-2.35,1.47c0,0.88,0.88,1.26,2.98,1.7c3.38,0.73,4.2,1.57,4.2,3.15c0,1.66-1.62,3.04-4.54,3.04
				C790.42,472.08,788.63,471.35,787.39,470.48z"/>
			<path d="M800.12,467.96v-6.34h1.74v6.11c0,1.91,0.67,2.83,2.35,2.83c1.18,0,2.04-0.55,3.17-1.87v-7.08h1.74v10.2h-1.45
				l-0.15-1.79h-0.08c-1.03,1.2-2.23,2.04-3.8,2.04C801.23,472.08,800.12,470.65,800.12,467.96z"/>
			<path d="M812.32,461.62h1.39l0.15,1.34h0.04c0.53-0.94,1.16-1.6,2.33-1.6c1.01,0,1.64,0.59,1.93,1.76
				c0.59-1.09,1.22-1.76,2.39-1.76c1.43,0,2.27,1.11,2.27,3.15v7.31h-1.72v-7.18c0-1.18-0.34-1.78-1.09-1.78
				c-0.71,0-1.09,0.52-1.64,1.57v7.39h-1.6v-7.18c0-1.18-0.29-1.78-1.05-1.78c-0.71,0-1.18,0.52-1.68,1.57v7.39h-1.72V461.62z"/>
		</g>
	</g>
</g>
<g id="DESIGNED_BY_FREEPIK" class="st22">
	<g class="st23">
		<g>
			<path class="st3" d="M180.31,483.75v-0.16c-0.22,0.25-0.43,0.45-0.64,0.61c-0.21,0.16-0.44,0.28-0.69,0.36
				c-0.25,0.08-0.52,0.12-0.81,0.12c-0.39,0-0.75-0.08-1.08-0.25c-0.33-0.16-0.62-0.4-0.86-0.7c-0.24-0.3-0.42-0.66-0.55-1.07
				c-0.12-0.41-0.19-0.86-0.19-1.33c0-1.01,0.25-1.8,0.74-2.37c0.5-0.56,1.15-0.85,1.95-0.85c0.47,0,0.86,0.08,1.18,0.24
				c0.32,0.16,0.63,0.41,0.94,0.74v-2.39c0-0.33,0.07-0.58,0.2-0.75c0.13-0.17,0.32-0.25,0.57-0.25c0.25,0,0.43,0.08,0.57,0.23
				c0.13,0.16,0.2,0.39,0.2,0.69v7.15c0,0.31-0.07,0.54-0.21,0.69c-0.14,0.15-0.33,0.23-0.55,0.23c-0.22,0-0.41-0.08-0.55-0.24
				C180.38,484.27,180.31,484.04,180.31,483.75z M177.12,481.37c0,0.44,0.07,0.81,0.21,1.12c0.14,0.31,0.32,0.54,0.56,0.7
				c0.24,0.16,0.5,0.24,0.78,0.24c0.28,0,0.54-0.08,0.78-0.22c0.24-0.15,0.42-0.38,0.56-0.68c0.14-0.31,0.21-0.69,0.21-1.15
				c0-0.43-0.07-0.8-0.21-1.11c-0.14-0.31-0.33-0.55-0.57-0.71c-0.24-0.16-0.5-0.25-0.79-0.25c-0.3,0-0.56,0.08-0.8,0.25
				c-0.23,0.17-0.41,0.41-0.54,0.72C177.18,480.58,177.12,480.95,177.12,481.37z"/>
			<path class="st3" d="M187.45,481.78h-3.17c0,0.37,0.08,0.69,0.22,0.97c0.14,0.28,0.34,0.49,0.58,0.64
				c0.24,0.14,0.5,0.21,0.79,0.21c0.19,0,0.37-0.02,0.53-0.07c0.16-0.05,0.32-0.12,0.47-0.21c0.15-0.1,0.29-0.2,0.41-0.31
				c0.13-0.11,0.29-0.26,0.49-0.45c0.08-0.07,0.2-0.11,0.36-0.11c0.17,0,0.3,0.05,0.4,0.14c0.1,0.09,0.16,0.22,0.16,0.39
				c0,0.15-0.06,0.32-0.17,0.51c-0.12,0.2-0.29,0.38-0.52,0.56c-0.23,0.18-0.52,0.33-0.87,0.45c-0.35,0.12-0.75,0.18-1.21,0.18
				c-1.04,0-1.85-0.3-2.43-0.89c-0.58-0.59-0.87-1.4-0.87-2.42c0-0.48,0.07-0.92,0.21-1.33c0.14-0.41,0.35-0.76,0.62-1.05
				c0.27-0.29,0.61-0.52,1.01-0.67c0.4-0.16,0.84-0.23,1.33-0.23c0.63,0,1.18,0.13,1.63,0.4c0.45,0.27,0.79,0.61,1.02,1.04
				c0.22,0.42,0.34,0.86,0.34,1.29c0,0.41-0.12,0.67-0.35,0.79C188.21,481.71,187.88,481.78,187.45,481.78z M184.28,480.85h2.94
				c-0.04-0.55-0.19-0.97-0.45-1.24c-0.26-0.28-0.6-0.41-1.02-0.41c-0.4,0-0.74,0.14-0.99,0.42
				C184.5,479.9,184.34,480.31,184.28,480.85z"/>
			<path class="st3" d="M194.84,482.55c0,0.45-0.11,0.83-0.33,1.15c-0.22,0.32-0.54,0.56-0.96,0.72c-0.43,0.16-0.94,0.25-1.55,0.25
				c-0.58,0-1.08-0.09-1.5-0.27c-0.42-0.18-0.72-0.4-0.92-0.67c-0.2-0.27-0.3-0.54-0.3-0.81c0-0.18,0.06-0.33,0.19-0.46
				c0.13-0.13,0.29-0.19,0.48-0.19c0.17,0,0.3,0.04,0.39,0.13c0.09,0.08,0.18,0.2,0.26,0.35c0.17,0.29,0.37,0.5,0.6,0.65
				c0.23,0.14,0.55,0.21,0.95,0.21c0.32,0,0.59-0.07,0.8-0.22c0.21-0.15,0.31-0.31,0.31-0.5c0-0.29-0.11-0.49-0.32-0.62
				c-0.22-0.13-0.57-0.26-1.07-0.37c-0.56-0.14-1.01-0.28-1.36-0.44c-0.35-0.15-0.63-0.35-0.84-0.6c-0.21-0.25-0.31-0.56-0.31-0.92
				c0-0.32,0.1-0.63,0.29-0.92c0.19-0.29,0.48-0.52,0.86-0.69c0.38-0.17,0.83-0.26,1.37-0.26c0.42,0,0.8,0.04,1.13,0.13
				c0.34,0.09,0.62,0.2,0.84,0.35c0.22,0.15,0.39,0.31,0.51,0.49c0.12,0.18,0.18,0.35,0.18,0.52c0,0.19-0.06,0.34-0.19,0.46
				c-0.12,0.12-0.3,0.18-0.53,0.18c-0.17,0-0.31-0.05-0.42-0.14c-0.12-0.09-0.25-0.24-0.4-0.43c-0.12-0.16-0.27-0.29-0.43-0.38
				c-0.17-0.1-0.39-0.14-0.68-0.14c-0.29,0-0.54,0.06-0.73,0.19c-0.19,0.12-0.29,0.28-0.29,0.46c0,0.17,0.07,0.31,0.21,0.42
				c0.14,0.11,0.33,0.2,0.58,0.27c0.24,0.07,0.57,0.16,1,0.26c0.5,0.12,0.91,0.27,1.23,0.44c0.32,0.17,0.56,0.37,0.72,0.6
				C194.76,481.99,194.84,482.25,194.84,482.55z"/>
			<path class="st3" d="M196.49,477.33c-0.23,0-0.42-0.07-0.58-0.21c-0.16-0.14-0.24-0.33-0.24-0.59c0-0.23,0.08-0.42,0.25-0.57
				c0.16-0.15,0.36-0.22,0.57-0.22c0.21,0,0.39,0.07,0.56,0.2c0.16,0.13,0.24,0.33,0.24,0.59c0,0.25-0.08,0.44-0.24,0.58
				C196.9,477.26,196.71,477.33,196.49,477.33z M197.29,479v4.68c0,0.33-0.08,0.57-0.23,0.74c-0.16,0.17-0.35,0.25-0.59,0.25
				c-0.24,0-0.43-0.08-0.58-0.26c-0.15-0.17-0.22-0.41-0.22-0.73v-4.64c0-0.32,0.07-0.56,0.22-0.72c0.15-0.16,0.34-0.24,0.58-0.24
				c0.24,0,0.43,0.08,0.59,0.24C197.22,478.49,197.29,478.71,197.29,479z"/>
			<path class="st3" d="M204.39,479.27v4.71c0,0.54-0.06,1-0.17,1.39c-0.11,0.39-0.3,0.71-0.55,0.96c-0.25,0.25-0.58,0.44-0.99,0.56
				c-0.41,0.12-0.92,0.18-1.53,0.18c-0.56,0-1.06-0.08-1.5-0.23c-0.44-0.16-0.78-0.36-1.01-0.61c-0.24-0.25-0.36-0.5-0.36-0.76
				c0-0.2,0.07-0.36,0.2-0.48c0.13-0.13,0.3-0.19,0.49-0.19c0.24,0,0.45,0.11,0.62,0.31c0.09,0.11,0.18,0.22,0.27,0.32
				c0.09,0.11,0.2,0.2,0.31,0.28c0.11,0.08,0.25,0.13,0.41,0.17c0.16,0.04,0.34,0.06,0.55,0.06c0.42,0,0.75-0.06,0.98-0.17
				c0.23-0.12,0.39-0.28,0.49-0.49c0.09-0.21,0.15-0.43,0.16-0.67c0.02-0.24,0.03-0.63,0.04-1.16c-0.25,0.35-0.54,0.61-0.86,0.8
				c-0.33,0.18-0.72,0.27-1.17,0.27c-0.54,0-1.02-0.14-1.42-0.42c-0.41-0.28-0.72-0.66-0.93-1.16c-0.22-0.5-0.33-1.07-0.33-1.73
				c0-0.49,0.07-0.93,0.2-1.32c0.13-0.39,0.32-0.72,0.57-0.99c0.25-0.27,0.53-0.47,0.85-0.61s0.67-0.2,1.06-0.2
				c0.46,0,0.86,0.09,1.19,0.26c0.34,0.18,0.65,0.45,0.94,0.83v-0.22c0-0.28,0.07-0.5,0.21-0.65c0.14-0.15,0.32-0.23,0.54-0.23
				c0.31,0,0.52,0.1,0.62,0.31C204.34,478.59,204.39,478.89,204.39,479.27z M199.7,481.32c0,0.66,0.14,1.15,0.43,1.49
				c0.29,0.34,0.66,0.5,1.11,0.5c0.27,0,0.52-0.07,0.76-0.22c0.24-0.14,0.44-0.36,0.59-0.65c0.15-0.29,0.22-0.64,0.22-1.06
				c0-0.66-0.14-1.17-0.44-1.54s-0.67-0.55-1.15-0.55c-0.46,0-0.83,0.18-1.11,0.53C199.84,480.17,199.7,480.67,199.7,481.32z"/>
			<path class="st3" d="M206.97,478.98v0.2c0.28-0.38,0.6-0.65,0.93-0.83c0.34-0.18,0.73-0.26,1.17-0.26c0.43,0,0.81,0.09,1.15,0.28
				c0.34,0.19,0.59,0.45,0.75,0.79c0.11,0.2,0.18,0.41,0.21,0.64c0.03,0.23,0.05,0.52,0.05,0.88v3.01c0,0.33-0.07,0.57-0.22,0.74
				c-0.15,0.17-0.34,0.25-0.58,0.25c-0.24,0-0.44-0.08-0.59-0.26c-0.15-0.17-0.23-0.41-0.23-0.73v-2.7c0-0.53-0.07-0.94-0.22-1.23
				c-0.15-0.28-0.44-0.42-0.89-0.42c-0.29,0-0.55,0.09-0.79,0.26c-0.24,0.17-0.41,0.41-0.52,0.71c-0.08,0.24-0.12,0.69-0.12,1.35
				v2.03c0,0.33-0.08,0.58-0.23,0.74c-0.15,0.16-0.35,0.25-0.59,0.25c-0.23,0-0.43-0.08-0.58-0.26c-0.15-0.17-0.23-0.41-0.23-0.73
				V479c0-0.31,0.07-0.54,0.2-0.69c0.13-0.15,0.32-0.23,0.55-0.23c0.14,0,0.27,0.03,0.39,0.1c0.11,0.07,0.21,0.17,0.28,0.3
				C206.94,478.62,206.97,478.79,206.97,478.98z"/>
			<path class="st3" d="M216.83,481.78h-3.17c0,0.37,0.08,0.69,0.22,0.97c0.14,0.28,0.34,0.49,0.58,0.64
				c0.24,0.14,0.5,0.21,0.79,0.21c0.19,0,0.37-0.02,0.53-0.07c0.16-0.05,0.32-0.12,0.47-0.21c0.15-0.1,0.29-0.2,0.42-0.31
				c0.13-0.11,0.29-0.26,0.49-0.45c0.08-0.07,0.2-0.11,0.36-0.11c0.17,0,0.3,0.05,0.4,0.14c0.1,0.09,0.15,0.22,0.15,0.39
				c0,0.15-0.06,0.32-0.17,0.51c-0.12,0.2-0.29,0.38-0.52,0.56c-0.23,0.18-0.52,0.33-0.87,0.45c-0.35,0.12-0.75,0.18-1.21,0.18
				c-1.04,0-1.85-0.3-2.43-0.89c-0.58-0.59-0.87-1.4-0.87-2.42c0-0.48,0.07-0.92,0.21-1.33c0.14-0.41,0.35-0.76,0.62-1.05
				c0.27-0.29,0.61-0.52,1.01-0.67c0.4-0.16,0.84-0.23,1.33-0.23c0.63,0,1.17,0.13,1.63,0.4c0.45,0.27,0.79,0.61,1.02,1.04
				c0.23,0.42,0.34,0.86,0.34,1.29c0,0.41-0.12,0.67-0.35,0.79C217.58,481.71,217.25,481.78,216.83,481.78z M213.66,480.85h2.94
				c-0.04-0.55-0.19-0.97-0.45-1.24c-0.26-0.28-0.6-0.41-1.02-0.41c-0.4,0-0.74,0.14-0.99,0.42
				C213.87,479.9,213.71,480.31,213.66,480.85z"/>
			<path class="st3" d="M223.44,483.75v-0.16c-0.22,0.25-0.43,0.45-0.64,0.61c-0.21,0.16-0.44,0.28-0.69,0.36
				c-0.25,0.08-0.52,0.12-0.81,0.12c-0.39,0-0.75-0.08-1.08-0.25c-0.33-0.16-0.62-0.4-0.86-0.7c-0.24-0.3-0.42-0.66-0.55-1.07
				c-0.13-0.41-0.19-0.86-0.19-1.33c0-1.01,0.25-1.8,0.74-2.37c0.49-0.56,1.15-0.85,1.95-0.85c0.47,0,0.86,0.08,1.18,0.24
				c0.32,0.16,0.63,0.41,0.94,0.74v-2.39c0-0.33,0.07-0.58,0.2-0.75c0.13-0.17,0.32-0.25,0.57-0.25c0.25,0,0.43,0.08,0.57,0.23
				c0.13,0.16,0.2,0.39,0.2,0.69v7.15c0,0.31-0.07,0.54-0.21,0.69c-0.14,0.15-0.33,0.23-0.55,0.23c-0.22,0-0.4-0.08-0.55-0.24
				C223.51,484.27,223.44,484.04,223.44,483.75z M220.25,481.37c0,0.44,0.07,0.81,0.2,1.12c0.14,0.31,0.32,0.54,0.56,0.7
				c0.24,0.16,0.5,0.24,0.78,0.24c0.29,0,0.54-0.08,0.78-0.22c0.24-0.15,0.42-0.38,0.56-0.68c0.14-0.31,0.21-0.69,0.21-1.15
				c0-0.43-0.07-0.8-0.21-1.11c-0.14-0.31-0.33-0.55-0.57-0.71c-0.24-0.16-0.5-0.25-0.79-0.25c-0.3,0-0.56,0.08-0.8,0.25
				s-0.42,0.41-0.54,0.72C220.31,480.58,220.25,480.95,220.25,481.37z"/>
			<path class="st3" d="M230.06,476.6v2.47c0.3-0.32,0.62-0.56,0.93-0.73c0.32-0.17,0.71-0.25,1.18-0.25c0.54,0,1.01,0.13,1.42,0.38
				c0.41,0.26,0.72,0.63,0.94,1.11c0.22,0.48,0.34,1.06,0.34,1.73c0,0.49-0.06,0.94-0.19,1.35c-0.13,0.41-0.31,0.76-0.54,1.07
				c-0.24,0.3-0.53,0.53-0.86,0.7c-0.34,0.16-0.71,0.25-1.12,0.25c-0.25,0-0.48-0.03-0.7-0.09c-0.22-0.06-0.41-0.14-0.56-0.23
				c-0.15-0.1-0.29-0.2-0.39-0.3c-0.11-0.1-0.25-0.26-0.43-0.46v0.16c0,0.3-0.07,0.54-0.22,0.69c-0.15,0.16-0.33,0.23-0.56,0.23
				c-0.23,0-0.41-0.08-0.55-0.23c-0.14-0.16-0.21-0.39-0.21-0.69v-7.08c0-0.33,0.07-0.58,0.2-0.74c0.13-0.17,0.32-0.25,0.55-0.25
				c0.25,0,0.44,0.08,0.58,0.24C229.99,476.07,230.06,476.3,230.06,476.6z M230.14,481.41c0,0.64,0.15,1.14,0.44,1.49
				c0.29,0.35,0.68,0.52,1.16,0.52c0.41,0,0.76-0.18,1.05-0.53c0.29-0.35,0.44-0.86,0.44-1.52c0-0.43-0.06-0.8-0.18-1.1
				c-0.12-0.31-0.3-0.55-0.52-0.71c-0.23-0.17-0.49-0.25-0.79-0.25c-0.31,0-0.58,0.08-0.82,0.25c-0.24,0.17-0.43,0.41-0.57,0.73
				C230.21,480.59,230.14,480.97,230.14,481.41z"/>
			<path class="st3" d="M236.96,484.87l0.15-0.36l-2-5.02c-0.12-0.29-0.18-0.5-0.18-0.63c0-0.14,0.04-0.27,0.11-0.38
				c0.07-0.12,0.17-0.21,0.29-0.29c0.13-0.07,0.25-0.11,0.39-0.11c0.23,0,0.41,0.07,0.53,0.22c0.12,0.15,0.22,0.36,0.31,0.64
				l1.37,3.99l1.3-3.71c0.1-0.3,0.2-0.54,0.28-0.71c0.08-0.17,0.17-0.29,0.26-0.34c0.09-0.06,0.22-0.09,0.39-0.09
				c0.12,0,0.24,0.03,0.35,0.1c0.11,0.07,0.2,0.15,0.26,0.26c0.06,0.11,0.09,0.23,0.09,0.35c-0.02,0.07-0.04,0.18-0.08,0.32
				c-0.04,0.14-0.08,0.28-0.13,0.42l-2.11,5.53c-0.18,0.49-0.36,0.87-0.53,1.15c-0.17,0.28-0.4,0.49-0.69,0.64
				c-0.29,0.15-0.67,0.22-1.16,0.22c-0.47,0-0.83-0.05-1.07-0.15c-0.24-0.1-0.36-0.29-0.36-0.56c0-0.19,0.06-0.33,0.17-0.43
				c0.11-0.1,0.28-0.15,0.5-0.15c0.09,0,0.17,0.01,0.26,0.04c0.1,0.02,0.19,0.04,0.27,0.04c0.19,0,0.33-0.03,0.44-0.08
				c0.11-0.06,0.2-0.15,0.29-0.29C236.75,485.34,236.85,485.14,236.96,484.87z"/>
		</g>
		<g>
			<path class="st3" d="M260.44,478.22h0.39v-0.49c0-0.51,0.06-0.91,0.19-1.21c0.13-0.3,0.35-0.52,0.65-0.65
				c0.31-0.14,0.73-0.2,1.26-0.2c0.95,0,1.42,0.23,1.42,0.7c0,0.15-0.05,0.28-0.15,0.38c-0.1,0.11-0.21,0.16-0.35,0.16
				c-0.06,0-0.17-0.01-0.33-0.04c-0.15-0.02-0.28-0.04-0.39-0.04c-0.29,0-0.48,0.09-0.57,0.26c-0.08,0.17-0.12,0.42-0.12,0.74v0.39
				h0.4c0.62,0,0.93,0.19,0.93,0.56c0,0.26-0.08,0.43-0.25,0.5c-0.16,0.07-0.39,0.11-0.68,0.11h-0.4v4.29
				c0,0.32-0.07,0.56-0.23,0.73c-0.15,0.17-0.35,0.25-0.59,0.25c-0.23,0-0.42-0.08-0.57-0.25c-0.15-0.17-0.23-0.41-0.23-0.73v-4.29
				h-0.45c-0.24,0-0.43-0.05-0.56-0.16c-0.13-0.11-0.2-0.25-0.2-0.42C259.62,478.42,259.9,478.22,260.44,478.22"/>
			<path class="st3" d="M265.75,482.33v1.36c0,0.33-0.08,0.57-0.23,0.74c-0.16,0.17-0.35,0.25-0.59,0.25
				c-0.24,0-0.43-0.08-0.58-0.25c-0.15-0.16-0.22-0.41-0.22-0.73v-4.51c0-0.73,0.26-1.09,0.79-1.09c0.27,0,0.46,0.08,0.58,0.25
				c0.12,0.17,0.18,0.42,0.2,0.75c0.19-0.33,0.39-0.58,0.59-0.75c0.21-0.17,0.48-0.25,0.82-0.25c0.34,0,0.67,0.08,0.99,0.25
				c0.32,0.17,0.48,0.4,0.48,0.68c0,0.2-0.07,0.36-0.2,0.49c-0.14,0.13-0.28,0.19-0.44,0.19c-0.06,0-0.21-0.04-0.43-0.11
				c-0.23-0.07-0.43-0.11-0.6-0.11c-0.24,0-0.43,0.06-0.58,0.19c-0.15,0.13-0.27,0.31-0.35,0.55c-0.08,0.25-0.14,0.54-0.17,0.88
				C265.76,481.43,265.75,481.84,265.75,482.33"/>
			<path class="st3" d="M273.2,481.77h-3.17c0,0.37,0.08,0.69,0.22,0.97c0.15,0.28,0.34,0.49,0.58,0.63
				c0.24,0.14,0.5,0.21,0.79,0.21c0.19,0,0.37-0.02,0.53-0.07c0.16-0.04,0.32-0.12,0.47-0.21c0.15-0.09,0.29-0.2,0.42-0.31
				c0.13-0.11,0.29-0.26,0.49-0.45c0.08-0.07,0.2-0.11,0.35-0.11c0.17,0,0.3,0.05,0.41,0.14c0.1,0.09,0.15,0.22,0.15,0.39
				c0,0.15-0.06,0.32-0.17,0.51c-0.12,0.2-0.29,0.39-0.52,0.57c-0.23,0.18-0.52,0.33-0.87,0.45c-0.35,0.12-0.75,0.18-1.21,0.18
				c-1.04,0-1.85-0.29-2.43-0.89c-0.58-0.59-0.87-1.4-0.87-2.42c0-0.48,0.07-0.92,0.22-1.33c0.14-0.41,0.35-0.76,0.63-1.05
				c0.27-0.29,0.61-0.52,1.01-0.67c0.4-0.16,0.84-0.23,1.33-0.23c0.63,0,1.18,0.13,1.63,0.4c0.45,0.26,0.8,0.61,1.02,1.03
				c0.23,0.43,0.34,0.86,0.34,1.3c0,0.41-0.12,0.67-0.35,0.79C273.95,481.71,273.62,481.77,273.2,481.77 M270.02,480.85h2.94
				c-0.04-0.55-0.19-0.97-0.45-1.24c-0.26-0.28-0.6-0.41-1.03-0.41c-0.4,0-0.74,0.14-1,0.42
				C270.24,479.89,270.08,480.31,270.02,480.85"/>
			<path class="st3" d="M279.94,481.77h-3.17c0,0.37,0.08,0.69,0.22,0.97c0.14,0.28,0.34,0.49,0.58,0.63
				c0.24,0.14,0.5,0.21,0.79,0.21c0.19,0,0.37-0.02,0.53-0.07c0.16-0.04,0.32-0.12,0.47-0.21c0.15-0.09,0.29-0.2,0.42-0.31
				c0.12-0.11,0.29-0.26,0.49-0.45c0.08-0.07,0.2-0.11,0.36-0.11c0.17,0,0.3,0.05,0.41,0.14c0.1,0.09,0.15,0.22,0.15,0.39
				c0,0.15-0.05,0.32-0.17,0.51c-0.11,0.2-0.28,0.39-0.52,0.57c-0.23,0.18-0.53,0.33-0.87,0.45c-0.35,0.12-0.75,0.18-1.21,0.18
				c-1.04,0-1.85-0.29-2.43-0.89c-0.58-0.59-0.87-1.4-0.87-2.42c0-0.48,0.07-0.92,0.22-1.33c0.14-0.41,0.35-0.76,0.62-1.05
				c0.27-0.29,0.61-0.52,1.01-0.67c0.4-0.16,0.84-0.23,1.33-0.23c0.63,0,1.17,0.13,1.63,0.4c0.45,0.26,0.79,0.61,1.01,1.03
				c0.22,0.43,0.34,0.86,0.34,1.3c0,0.41-0.12,0.67-0.35,0.79C280.69,481.71,280.36,481.77,279.94,481.77 M276.77,480.85h2.94
				c-0.04-0.55-0.19-0.97-0.45-1.24c-0.26-0.28-0.6-0.41-1.03-0.41c-0.4,0-0.73,0.14-1,0.42
				C276.98,479.89,276.82,480.31,276.77,480.85"/>
			<path class="st3" d="M283.49,478.99v0.19c0.3-0.38,0.62-0.65,0.95-0.83c0.32-0.18,0.7-0.27,1.11-0.27c0.5,0,0.96,0.13,1.38,0.39
				c0.42,0.26,0.75,0.63,0.99,1.13c0.24,0.5,0.37,1.08,0.37,1.76c0,0.5-0.07,0.96-0.21,1.38c-0.14,0.42-0.34,0.77-0.58,1.05
				c-0.25,0.28-0.53,0.5-0.87,0.65c-0.34,0.15-0.69,0.23-1.08,0.23c-0.46,0-0.85-0.09-1.16-0.28c-0.31-0.18-0.61-0.46-0.9-0.82v2.43
				c0,0.71-0.26,1.07-0.78,1.07c-0.31,0-0.51-0.09-0.61-0.27c-0.09-0.19-0.15-0.45-0.15-0.81v-7c0-0.31,0.07-0.54,0.2-0.69
				c0.13-0.15,0.32-0.23,0.55-0.23c0.23,0,0.42,0.08,0.56,0.23C283.42,478.47,283.49,478.69,283.49,478.99 M286.67,481.35
				c0-0.43-0.07-0.8-0.2-1.1c-0.13-0.31-0.31-0.54-0.54-0.71c-0.23-0.16-0.49-0.25-0.77-0.25c-0.45,0-0.82,0.18-1.13,0.53
				c-0.31,0.35-0.46,0.87-0.46,1.56c0,0.64,0.15,1.15,0.46,1.5c0.3,0.36,0.68,0.54,1.13,0.54c0.27,0,0.52-0.08,0.75-0.23
				c0.23-0.16,0.41-0.39,0.55-0.7C286.6,482.17,286.67,481.79,286.67,481.35"/>
			<path class="st3" d="M289.92,477.32c-0.23,0-0.42-0.07-0.58-0.21c-0.16-0.14-0.24-0.33-0.24-0.58c0-0.23,0.08-0.42,0.25-0.57
				c0.16-0.15,0.35-0.22,0.57-0.22c0.21,0,0.4,0.07,0.56,0.2c0.16,0.14,0.24,0.33,0.24,0.59c0,0.25-0.08,0.44-0.24,0.58
				C290.33,477.25,290.14,477.32,289.92,477.32 M290.73,479v4.69c0,0.32-0.08,0.57-0.23,0.73c-0.16,0.17-0.35,0.25-0.59,0.25
				c-0.24,0-0.43-0.08-0.58-0.25c-0.15-0.17-0.22-0.41-0.22-0.73v-4.64c0-0.32,0.08-0.56,0.22-0.72c0.15-0.17,0.34-0.25,0.58-0.25
				c0.24,0,0.43,0.08,0.59,0.25C290.65,478.49,290.73,478.71,290.73,479"/>
			<path class="st3" d="M295.95,483.93l-1.43-2.35l-0.88,0.83v1.29c0,0.31-0.08,0.55-0.25,0.72c-0.16,0.17-0.35,0.25-0.57,0.25
				c-0.25,0-0.45-0.08-0.59-0.25c-0.14-0.16-0.21-0.41-0.21-0.73v-6.91c0-0.36,0.07-0.63,0.21-0.82c0.14-0.19,0.34-0.28,0.6-0.28
				c0.25,0,0.45,0.09,0.59,0.26c0.15,0.17,0.22,0.42,0.22,0.75v3.93l1.82-1.91c0.23-0.23,0.4-0.4,0.52-0.49
				c0.12-0.09,0.26-0.13,0.43-0.13c0.2,0,0.37,0.06,0.51,0.19c0.13,0.13,0.2,0.29,0.2,0.48c0,0.24-0.22,0.56-0.66,0.95l-0.86,0.79
				l1.66,2.61c0.12,0.2,0.21,0.34,0.26,0.44c0.05,0.1,0.08,0.2,0.08,0.29c0,0.26-0.07,0.46-0.21,0.61
				c-0.14,0.15-0.33,0.22-0.55,0.22c-0.2,0-0.35-0.05-0.46-0.16C296.28,484.4,296.13,484.21,295.95,483.93"/>
			<path class="st3" d="M299.47,484.67c-0.25,0-0.46-0.08-0.63-0.24c-0.18-0.16-0.27-0.38-0.27-0.67c0-0.24,0.09-0.45,0.26-0.62
				c0.17-0.17,0.38-0.26,0.63-0.26c0.25,0,0.46,0.09,0.64,0.26c0.17,0.17,0.26,0.38,0.26,0.63c0,0.28-0.09,0.5-0.26,0.66
				C299.92,484.59,299.71,484.67,299.47,484.67"/>
			<path class="st3" d="M307.54,482.66c0,0.2-0.06,0.42-0.18,0.65c-0.12,0.23-0.3,0.45-0.55,0.66c-0.25,0.21-0.56,0.38-0.93,0.5
				c-0.38,0.13-0.8,0.19-1.27,0.19c-1,0-1.79-0.29-2.35-0.88c-0.56-0.58-0.84-1.37-0.84-2.35c0-0.67,0.13-1.25,0.39-1.76
				c0.25-0.51,0.63-0.9,1.11-1.18c0.49-0.28,1.07-0.42,1.75-0.42c0.42,0,0.81,0.06,1.16,0.18c0.35,0.12,0.65,0.28,0.89,0.47
				c0.24,0.2,0.43,0.4,0.56,0.62c0.13,0.22,0.19,0.43,0.19,0.62c0,0.19-0.07,0.36-0.21,0.49c-0.15,0.13-0.32,0.2-0.52,0.2
				c-0.14,0-0.25-0.04-0.34-0.1c-0.09-0.07-0.19-0.18-0.3-0.34c-0.2-0.3-0.4-0.53-0.62-0.67c-0.21-0.15-0.49-0.23-0.82-0.23
				c-0.48,0-0.86,0.19-1.16,0.56c-0.29,0.37-0.44,0.89-0.44,1.53c0,0.3,0.04,0.59,0.11,0.84c0.07,0.25,0.18,0.47,0.33,0.65
				c0.14,0.18,0.32,0.32,0.52,0.41c0.2,0.1,0.42,0.14,0.66,0.14c0.33,0,0.6-0.08,0.84-0.23c0.24-0.15,0.44-0.38,0.62-0.69
				c0.1-0.18,0.2-0.32,0.32-0.43c0.11-0.1,0.26-0.16,0.42-0.16c0.2,0,0.36,0.08,0.49,0.23C307.47,482.33,307.54,482.5,307.54,482.66
				"/>
			<path class="st3" d="M314.53,481.38c0,0.48-0.08,0.93-0.22,1.34c-0.15,0.41-0.37,0.76-0.66,1.05c-0.28,0.29-0.63,0.52-1.02,0.68
				c-0.4,0.15-0.84,0.23-1.34,0.23c-0.49,0-0.93-0.08-1.33-0.24c-0.39-0.16-0.73-0.38-1.02-0.68c-0.29-0.3-0.51-0.65-0.66-1.05
				c-0.14-0.4-0.22-0.85-0.22-1.33c0-0.49,0.08-0.94,0.22-1.35c0.15-0.41,0.37-0.76,0.65-1.05c0.28-0.29,0.62-0.51,1.02-0.67
				c0.4-0.16,0.84-0.23,1.33-0.23c0.49,0,0.94,0.08,1.34,0.24c0.4,0.16,0.74,0.38,1.03,0.67c0.29,0.3,0.5,0.64,0.65,1.04
				C314.46,480.44,314.53,480.89,314.53,481.38 M312.9,481.38c0-0.66-0.15-1.18-0.44-1.54c-0.29-0.37-0.68-0.55-1.17-0.55
				c-0.32,0-0.6,0.08-0.84,0.25c-0.24,0.16-0.43,0.41-0.56,0.73c-0.13,0.32-0.2,0.7-0.2,1.12c0,0.42,0.06,0.79,0.19,1.11
				c0.13,0.32,0.31,0.56,0.55,0.73c0.24,0.17,0.52,0.25,0.85,0.25c0.49,0,0.88-0.18,1.17-0.56
				C312.76,482.54,312.9,482.03,312.9,481.38"/>
			<path class="st3" d="M320.71,481.5v2.15c0,0.34-0.08,0.59-0.23,0.77c-0.16,0.17-0.36,0.26-0.61,0.26c-0.25,0-0.45-0.08-0.59-0.26
				c-0.16-0.17-0.23-0.42-0.23-0.77v-2.58c0-0.41-0.01-0.73-0.04-0.95c-0.03-0.22-0.11-0.41-0.23-0.55
				c-0.12-0.15-0.32-0.22-0.58-0.22c-0.53,0-0.88,0.18-1.05,0.55c-0.17,0.36-0.25,0.88-0.25,1.57v2.19c0,0.34-0.08,0.59-0.23,0.76
				c-0.16,0.17-0.35,0.26-0.6,0.26c-0.25,0-0.45-0.09-0.6-0.26c-0.16-0.17-0.24-0.43-0.24-0.76v-4.64c0-0.31,0.07-0.54,0.21-0.7
				c0.14-0.16,0.33-0.24,0.56-0.24c0.22,0,0.41,0.08,0.56,0.22c0.15,0.15,0.22,0.35,0.22,0.62v0.15c0.28-0.33,0.58-0.58,0.9-0.74
				c0.32-0.16,0.68-0.24,1.07-0.24c0.41,0,0.76,0.08,1.05,0.24c0.29,0.16,0.53,0.41,0.72,0.74c0.27-0.33,0.57-0.58,0.88-0.74
				c0.31-0.16,0.66-0.24,1.04-0.24c0.44,0,0.83,0.09,1.15,0.26c0.32,0.17,0.56,0.42,0.72,0.75c0.14,0.29,0.21,0.76,0.21,1.39v3.16
				c0,0.34-0.08,0.59-0.23,0.77c-0.15,0.17-0.36,0.26-0.61,0.26c-0.25,0-0.45-0.09-0.6-0.26c-0.16-0.17-0.23-0.43-0.23-0.76v-2.73
				c0-0.35-0.01-0.63-0.04-0.84c-0.03-0.21-0.11-0.39-0.24-0.53c-0.13-0.14-0.33-0.21-0.6-0.21c-0.21,0-0.42,0.07-0.61,0.19
				c-0.19,0.12-0.34,0.3-0.45,0.51C320.77,480.32,320.71,480.8,320.71,481.5"/>
		</g>
		<g>
			<path class="st3" d="M245.27,480.98c0,0,0-0.01,0-0.01C245.27,480.98,245.27,480.98,245.27,480.98z"/>
			<path class="st3" d="M245.35,481.5C245.35,481.5,245.35,481.5,245.35,481.5c-0.03-0.15-0.05-0.29-0.07-0.44
				C245.3,481.21,245.32,481.36,245.35,481.5z"/>
			<path class="st3" d="M245.89,483.01c0-0.01-0.01-0.01-0.01-0.02C245.88,482.99,245.89,483,245.89,483.01z"/>
			<path class="st3" d="M245.84,482.91c-0.01-0.03-0.03-0.06-0.04-0.08C245.81,482.85,245.82,482.88,245.84,482.91z"/>
			<path class="st3" d="M245.5,482.08c0.08,0.25,0.18,0.49,0.29,0.72C245.68,482.57,245.58,482.33,245.5,482.08
				C245.51,482.08,245.5,482.08,245.5,482.08z"/>
			<path class="st3" d="M251.54,474.77c0.31,0,0.54,0.03,0.81,0.07l0.08-0.48c0,0-0.73-0.22-1.69-0.15l-0.08-0.26
				c0.3-0.06,0.52-0.33,0.52-0.65c0-0.36-0.3-0.66-0.66-0.66c-0.37,0-0.66,0.29-0.66,0.66c0,0.32,0.22,0.58,0.52,0.65l0.08,0.29
				c-1.02,0.14-1.83,0.54-1.83,0.54l0.14,0.44c0.62-0.21,1.15-0.33,1.64-0.38C250.89,474.79,251.25,474.77,251.54,474.77z"/>
			<path class="st3" d="M245.88,477.18L245.88,477.18c0.03-0.04,0.05-0.07,0.07-0.09l-0.2-0.14l-0.31-0.22
				c-0.02,0.02-0.5,0.46-0.88,1.28c-0.02-0.03-0.04-0.05-0.06-0.07c-0.11-0.12-0.27-0.19-0.47-0.18c0,0-0.01,0-0.01,0
				c-0.13,0-0.21-0.04-0.27-0.09c0.06-0.07,0.09-0.16,0.09-0.26c0-0.23-0.19-0.42-0.42-0.42s-0.42,0.19-0.42,0.42
				c0,0.23,0.19,0.42,0.42,0.42c0.04,0,0.07-0.01,0.1-0.01c0.1,0.11,0.27,0.21,0.51,0.21c0.12,0,0.21,0.03,0.27,0.1
				c0.07,0.08,0.09,0.19,0.1,0.27c0,0,0,0,0,0c-0.27,0.74-0.2,1.67-0.2,1.67l0.66,0.03c0.01-0.34,0.06-0.93,0.23-1.39
				C245.45,477.78,245.86,477.21,245.88,477.18z"/>
			<path class="st3" d="M257.29,475.33c-0.23,0-0.42,0.19-0.42,0.42c0,0.04,0,0.07,0.01,0.1c-0.12,0.1-0.21,0.27-0.21,0.51
				c0,0.12-0.03,0.21-0.1,0.27c-0.05,0.05-0.12,0.07-0.18,0.09c-0.49-0.69-1.1-1.11-1.1-1.11l-0.47,0.51
				c0.36,0.33,0.72,0.73,1.08,1.24c0.25,0.35,0.5,0.81,0.71,1.26l0.64-0.3c0,0-0.29-0.72-0.7-1.37c0.07-0.02,0.14-0.06,0.21-0.12
				c0.13-0.11,0.19-0.27,0.18-0.47c0-0.13,0.04-0.22,0.09-0.28c0.07,0.05,0.16,0.09,0.26,0.09c0.23,0,0.42-0.19,0.42-0.42
				C257.71,475.51,257.53,475.33,257.29,475.33z"/>
			<path class="st3" d="M255.63,481.08c-0.88,0.43-2.33,1-4.24,1.26c-0.75,0.1-1.47,0.14-2.14,0.14c-0.87,0-1.64-0.06-2.23-0.14
				c-0.67-0.08-1.2-0.19-1.52-0.26c0.08,0.25,0.17,0.49,0.28,0.72c0,0.01,0,0.01,0.01,0.02c0.01,0.03,0.03,0.06,0.04,0.08
				c0.01,0.03,0.03,0.05,0.04,0.08c0,0.01,0.01,0.01,0.01,0.02c0.19,0.36,0.42,0.68,0.67,0.97c0.9,0.98,1.82,1.14,1.83,1.14l0.01,0
				l0.01,0c0.01,0,0.82,0.27,2.06,0.27c1.21,0,2.41-0.25,3.55-0.73c0.84-0.43,1.64-1.08,2.03-1.67c0.31-0.45,0.53-0.93,0.66-1.43
				c0.07-0.27,0.12-0.69,0.09-1.14C256.56,480.58,256.16,480.82,255.63,481.08z"/>
			<path class="st3" d="M246.16,477.39c-0.03,0.04-0.41,0.58-0.71,1.41c-0.23,0.62-0.22,1.53-0.22,1.54v0
				c0,0.21,0.01,0.42,0.04,0.63c0,0,0,0.01,0,0.01c0,0.03,0.01,0.05,0.01,0.08c0.02,0.14,0.04,0.29,0.07,0.44
				c0.44,0.11,3.05,0.72,5.97,0.31c1.83-0.25,3.22-0.79,4.06-1.2c0.7-0.34,1.15-0.65,1.33-0.77c-0.17-0.64-0.65-1.65-1.09-2.28
				c-1.25-1.79-2.6-2.25-3.3-2.36c-0.26-0.04-0.48-0.07-0.78-0.07c-0.28,0-0.63,0.02-1.09,0.07c-0.46,0.05-0.98,0.17-1.58,0.37
				c-0.84,0.28-1.6,0.72-2.2,1.28l-0.02,0.02C246.56,476.95,246.37,477.12,246.16,477.39z M253.83,476.98c0.6,0,1.09,0.49,1.09,1.09
				c0,0.6-0.49,1.09-1.09,1.09c-0.6,0-1.09-0.49-1.09-1.09C252.74,477.46,253.23,476.98,253.83,476.98z M248.68,476.93
				c0.97,0,1.76,0.79,1.76,1.76c0,0.97-0.79,1.76-1.76,1.76c-0.97,0-1.76-0.79-1.76-1.76C246.92,477.72,247.71,476.93,248.68,476.93
				z"/>
		</g>
	</g>
</g>
</svg>
